<svg width="100" height="42" viewBox="0 0 100 42" fill="none" xmlns="http://www.w3.org/2000/svg">
<path d="M32.109 18.4549C32.109 16.6776 30.3318 14.7819 27.3697 14.7819C24.0521 14.7819 20.2607 17.27 19.6682 22.2463C19.0758 27.2226 22.1564 29.4738 25.3554 29.4738C28.5545 29.4738 30.0948 28.289 31.7536 26.6302C30.3318 24.853 28.436 25.6823 28.0806 25.8008C27.7251 26.0378 27.1327 26.2748 26.1848 26.2748C25 26.2748 23.6967 25.6823 23.6967 23.4312C31.5166 22.6018 32.109 20.2321 32.109 18.4549ZM28.3175 18.6918C28.3175 19.2842 28.0806 20.2321 24.1706 20.706C25 17.7439 26.5403 17.507 27.2512 17.507C27.9621 17.6255 28.3175 18.0994 28.3175 18.6918ZM15.1659 19.1658C15.1659 19.1658 13.5071 24.379 13.3886 24.853C13.3886 24.379 12.0853 15.0188 12.0853 15.0188C9.2417 15.0188 7.70142 17.033 6.99052 19.1658C6.99052 19.1658 4.9763 24.379 4.85782 24.853C4.73934 24.4975 4.50237 19.2842 4.50237 19.2842C4.2654 16.6776 1.89573 15.0188 0 15.0188L2.36967 29.2368C5.33175 29.2368 6.99052 27.2226 7.81991 25.0899C7.81991 25.0899 9.59716 20.4691 9.71564 20.2321C9.71564 20.4691 11.019 29.2368 11.019 29.2368C13.981 29.2368 15.6398 27.3411 16.4692 25.3269L20.6161 15.0188C17.5355 15.0188 15.9953 17.033 15.1659 19.1658ZM43.128 14.6634C41.3507 14.6634 39.9289 15.6112 38.7441 17.1515L39.6919 8.62073C37.2038 8.62073 35.3081 10.7534 34.8341 13.834L32.9384 29.1184C34.3602 29.1184 35.782 28.7629 36.6114 27.6966C37.3223 28.6444 38.3886 29.3553 39.9289 29.3553C44.0758 29.3553 46.9194 24.616 46.9194 20.1136C47.0379 15.9667 45.0237 14.6634 43.128 14.6634ZM42.654 22.0094C42.1801 24.4975 40.8768 26.1563 39.455 26.1563C38.1517 26.1563 37.5592 25.5639 37.5592 25.5639C37.7962 23.4312 38.0332 22.0094 38.5071 20.8245C38.981 19.6397 40.1659 17.8624 41.3507 17.8624C42.5355 17.9809 43.128 19.5212 42.654 22.0094ZM57.346 15.0188H54.5024V14.9003C54.7393 13.0046 55.0948 12.0567 56.6351 11.9383C57.5829 11.8198 58.0569 11.3458 58.1754 10.7534C58.2938 10.2795 58.5308 8.73921 58.5308 8.73921C52.7251 8.73921 50.9479 11.2274 50.4739 15.0188V15.1373H50.3554C49.4076 15.1373 48.3412 16.2037 48.2227 17.507L48.1043 17.9809H50L48.3412 31.2511L47.8673 33.6207C47.9858 33.6207 47.9858 33.6207 48.1043 33.6207C50.8294 33.5022 52.4882 31.3695 52.9621 28.289L54.2654 17.8624H55.2133C56.0427 17.8624 57.109 17.033 57.346 15.4928V15.0188ZM72.2749 14.7819C68.9573 14.7819 65.8768 17.27 64.9289 21.0615C63.981 24.853 65.4028 29.4738 70.2607 29.4738C75.1185 29.4738 77.9621 24.7345 77.9621 20.8245C77.8436 16.9146 75.237 14.7819 72.2749 14.7819ZM73.5782 21.8909C73.4597 23.6681 72.6303 26.2748 70.4976 26.2748C68.3649 26.2748 68.7204 23.1942 68.8389 21.7724C69.0758 20.2321 69.9052 17.9809 71.8009 17.9809C73.5782 17.9809 73.8152 19.9951 73.5782 21.8909ZM94.3128 19.1658C94.3128 19.1658 92.654 24.379 92.5355 24.853C92.5355 24.379 91.2322 15.0188 91.2322 15.0188C88.3886 15.0188 86.8483 17.033 86.1374 19.1658C86.1374 19.1658 84.1232 24.379 84.0047 24.853C84.0047 24.4975 83.6493 19.2842 83.6493 19.2842C83.5308 16.6776 81.0427 15.1373 79.1469 15.1373L81.5166 29.3553C84.4787 29.3553 86.1374 27.3411 86.9668 25.2084C86.9668 25.2084 88.7441 20.5876 88.8626 20.3506C88.8626 20.5876 90.1659 29.3553 90.1659 29.3553C93.128 29.3553 94.7867 27.4596 95.6161 25.4454L99.5261 15.0188C96.564 15.0188 95.0237 17.033 94.3128 19.1658ZM60.0711 8.73921L57.7014 28.1705L57.2275 30.5402C57.346 30.5402 57.346 30.5402 57.4645 30.5402C60.0711 30.5402 61.9668 28.1705 62.2038 25.3269L63.6256 14.1894C63.981 10.8719 61.8483 8.73921 60.0711 8.73921Z" fill="#1B1B1B"/>
</svg>
