<svg width="101" height="31" viewBox="0 0 101 31" fill="none" xmlns="http://www.w3.org/2000/svg">
<g clip-path="url(#clip0_13_10525)">
<path d="M27.9716 9.56268H32.6477C35.6289 9.56268 38.0916 11.2876 38.0916 15.2259V16.0535C38.0916 20.0217 35.7884 21.8064 32.7375 21.8064H27.9716V9.56268ZM30.5838 11.7861V19.5731H32.5879C34.2829 19.5731 35.4195 18.4663 35.4195 16.0036V15.3555C35.4195 12.8928 34.2231 11.7861 32.4982 11.7861H30.5838ZM39.4775 11.9057H41.5713L41.9103 14.2089C42.3091 12.6436 43.3261 11.806 45.1707 11.806H45.8187V14.4482H44.7419C42.6182 14.4482 42.0997 15.186 42.0997 17.2798V21.8364H39.5174V11.9057H39.4775ZM46.3372 17.0705V16.7913C46.3372 13.4711 48.4609 11.6565 51.3524 11.6565C54.3036 11.6565 56.3675 13.4711 56.3675 16.7913V17.0705C56.3675 20.3308 54.3635 22.0856 51.3524 22.0856C48.1518 22.0557 46.3372 20.3408 46.3372 17.0705ZM53.7253 17.0406V16.7913C53.7253 14.9467 52.7981 13.84 51.3225 13.84C49.8767 13.84 48.9196 14.857 48.9196 16.7913V17.0406C48.9196 18.8253 49.8468 19.8423 51.3225 19.8423C52.7981 19.8123 53.7253 18.8253 53.7253 17.0406ZM57.7235 11.9057H59.8771L60.1264 13.7802C60.6449 12.5239 61.7516 11.6565 63.3868 11.6565C65.9093 11.6565 67.5744 13.4711 67.5744 16.8312V17.1103C67.5744 20.3707 65.7298 22.0956 63.3868 22.0956C61.8214 22.0956 60.7446 21.3877 60.2161 20.251V25.2662H57.6936L57.7235 11.9057ZM64.9521 17.0406V16.8212C64.9521 14.847 63.9351 13.8699 62.5791 13.8699C61.1334 13.8699 60.1763 14.9767 60.1763 16.8212V17.0106C60.1763 18.7654 61.1035 19.8722 62.5492 19.8722C64.0348 19.8423 64.9521 18.8951 64.9521 17.0406ZM71.3931 20.0018L71.1737 21.8164H68.9603V8.58557H71.4828V13.6606C72.0411 12.3644 73.1479 11.6565 74.7132 11.6565C77.0862 11.6864 78.841 13.3216 78.841 16.6118V16.9209C78.841 20.2112 77.1759 22.0956 74.6534 22.0956C72.9883 22.0557 71.9115 21.288 71.3931 20.0018ZM76.1889 16.9209V16.6716C76.1889 14.857 75.2018 13.84 73.8159 13.84C72.4001 13.84 71.413 14.9767 71.413 16.7016V16.9209C71.413 18.7654 72.3702 19.8423 73.786 19.8423C75.3015 19.8423 76.1889 18.8951 76.1889 16.9209ZM79.9477 17.0705V16.7913C79.9477 13.4711 82.0715 11.6565 84.9629 11.6565C87.9142 11.6565 89.9781 13.4711 89.9781 16.7913V17.0705C89.9781 20.3308 87.9441 22.0856 84.9629 22.0856C81.7624 22.0557 79.9477 20.3408 79.9477 17.0705ZM87.3558 17.0406V16.7913C87.3558 14.9467 86.4286 13.84 84.9529 13.84C83.5072 13.84 82.55 14.857 82.55 16.7913V17.0406C82.55 18.8253 83.4773 19.8423 84.9529 19.8423C86.4385 19.8123 87.3558 18.8253 87.3558 17.0406ZM93.3581 16.6716L89.8784 11.9057H92.8595L94.8636 14.8869L96.8976 11.9057H99.8488L96.3193 16.6417L100.038 21.8164H97.1169L94.8437 18.5262L92.6302 21.8164H89.5792L93.3581 16.6716Z" fill="black"/>
<path d="M11.8991 9.56274L6.11626 13.2518L11.8991 16.9409L6.11626 20.63L0.333374 16.921L6.11626 13.2319L0.333374 9.56274L6.11626 5.87366L11.8991 9.56274ZM6.08635 21.8165L11.8692 18.1274L17.6521 21.8165L11.8692 25.5056L6.08635 21.8165ZM11.8991 16.921L17.682 13.2319L11.8991 9.56274L17.6521 5.87366L23.435 9.56274L17.6521 13.2518L23.435 16.9409L17.6521 20.63L11.8991 16.921Z" fill="#0061FF"/>
</g>
<defs>
<clipPath id="clip0_13_10525">
<rect width="100" height="29.4479" fill="white" transform="translate(0.333374 0.965698)"/>
</clipPath>
</defs>
</svg>
