<svg width="101" height="41" viewBox="0 0 101 41" fill="none" xmlns="http://www.w3.org/2000/svg">
<g clip-path="url(#clip0_13_10524)">
<path d="M32.0097 27.6536L33.223 24.8177C34.5515 25.8016 36.2843 26.3223 38.0175 26.3223C39.2884 26.3223 40.097 25.8306 40.097 25.0783C40.068 22.9946 32.443 24.6152 32.385 19.3766C32.356 16.7143 34.7246 14.6596 38.0755 14.6596C40.068 14.6596 42.0613 15.1518 43.4764 16.2806L42.3426 19.177C41.0406 18.3398 39.4325 17.7561 37.9019 17.7561C36.8621 17.7561 36.1687 18.2478 36.1687 18.8849C36.1977 20.9396 43.8811 19.8108 43.9677 24.8177C43.9677 27.5381 41.6566 29.4481 38.3638 29.4481C35.938 29.4481 33.7139 28.8694 32.0093 27.6536H32.0097ZM80.3221 23.7908C80.0159 24.335 79.5704 24.7879 79.0313 25.1031C78.4923 25.4183 77.8791 25.5844 77.2546 25.5845C75.3085 25.5845 73.7311 24.0037 73.7311 22.0539C73.7311 20.104 75.3085 18.5233 77.2546 18.5233C77.8791 18.5233 78.4923 18.6895 79.0313 19.0047C79.5704 19.3199 80.0159 19.7728 80.3221 20.317L83.6953 18.4446C82.4319 16.1865 80.0218 14.6596 77.2546 14.6596C73.1789 14.6596 69.8749 17.9699 69.8749 22.0539C69.8749 26.1375 73.1789 29.4481 77.2546 29.4481C80.0218 29.4481 82.4319 27.9212 83.6953 25.6632L80.3221 23.7908ZM46.1565 29.1586H50.3735V8.50439H46.1569L46.1565 29.1586ZM85.8249 8.50439V29.1586H90.0419V22.9706L95.039 29.1586H100.429L94.0746 21.8074L99.9668 14.948H94.8078L90.0419 20.6509V8.50439H85.8249ZM63.3655 14.9488V16.6277C62.6724 15.4699 60.9682 14.6596 59.1775 14.6596C55.4803 14.6596 52.5632 17.9301 52.5632 22.0394C52.5632 26.1487 55.4803 29.4481 59.1775 29.4481C60.9682 29.4481 62.6724 28.6379 63.3655 27.4801V29.1586H67.5825V14.9488H63.3655ZM63.3655 23.8194C62.759 24.8322 61.4881 25.5841 60.0731 25.5841C58.1265 25.5841 56.5491 24.0037 56.5491 22.0539C56.5491 20.104 58.1265 18.5233 60.0731 18.5233C61.4881 18.5233 62.759 19.3046 63.3655 20.346V23.8194Z" fill="black"/>
<path d="M9.73964 8.0481C8.37305 8.0481 7.26536 9.15827 7.26536 10.5273C7.26503 10.8526 7.32877 11.1747 7.45294 11.4754C7.57711 11.776 7.75927 12.0492 7.98903 12.2794C8.21879 12.5096 8.49164 12.6923 8.79201 12.8171C9.09238 12.9419 9.41438 13.0063 9.73964 13.0066H12.2143V10.5273C12.2149 9.87043 11.9545 9.24019 11.4904 8.77526C11.0263 8.31032 10.3966 8.04875 9.73964 8.0481ZM9.73964 14.6594H3.14115C1.77456 14.6594 0.66687 15.7696 0.66687 17.1391C0.66687 18.5082 1.77456 19.6183 3.14115 19.6183H9.74005C11.1062 19.6183 12.2143 18.5082 12.2143 17.1391C12.2143 15.7696 11.1062 14.6594 9.73964 14.6594Z" fill="#36C5F0"/>
<path d="M25.4114 17.1391C25.4114 15.7696 24.3033 14.6594 22.9367 14.6594C21.5701 14.6594 20.4624 15.7696 20.4624 17.1391V19.6183H22.9367C23.5936 19.6177 24.2233 19.3561 24.6874 18.8912C25.1515 18.4262 25.4119 17.796 25.4114 17.1391ZM18.8129 17.1391V10.5273C18.8134 9.87043 18.553 9.24019 18.0889 8.77526C17.6248 8.31032 16.9951 8.04875 16.3382 8.0481C14.9716 8.0481 13.8639 9.15827 13.8639 10.5273V17.1387C13.8639 18.5086 14.9716 19.6188 16.3382 19.6188C16.9951 19.6181 17.6248 19.3565 18.0889 18.8916C18.553 18.4267 18.8134 17.7964 18.8129 17.1395" fill="#2EB67D"/>
<path d="M16.3382 32.8415C16.9951 32.8408 17.6248 32.5793 18.0889 32.1143C18.553 31.6494 18.8134 31.0192 18.8129 30.3622C18.8134 29.7053 18.553 29.0751 18.0889 28.6101C17.6248 28.1452 16.9951 27.8836 16.3382 27.883H13.8639V30.3622C13.8639 31.7313 14.9716 32.8415 16.3382 32.8415ZM16.3382 26.2302H22.9371C24.3033 26.2302 25.4114 25.12 25.4114 23.7505C25.4119 23.0936 25.1515 22.4633 24.6874 21.9984C24.2233 21.5335 23.5936 21.2719 22.9367 21.2712H16.3382C14.9716 21.2712 13.8639 22.3814 13.8639 23.7505C13.8636 24.0757 13.9273 24.3979 14.0515 24.6985C14.1756 24.9991 14.3578 25.2723 14.5876 25.5026C14.8173 25.7328 15.0902 25.9155 15.3905 26.0403C15.6909 26.165 16.0129 26.2294 16.3382 26.2297" fill="#ECB22E"/>
<path d="M0.666627 23.7505C0.666301 24.0757 0.730041 24.3979 0.854208 24.6985C0.978376 24.9991 1.16054 25.2723 1.3903 25.5026C1.62005 25.7328 1.89291 25.9155 2.19328 26.0403C2.49365 26.165 2.81565 26.2294 3.14091 26.2297C3.79782 26.2291 4.42758 25.9675 4.89166 25.5026C5.35574 25.0376 5.61615 24.4074 5.6156 23.7505V21.2712H3.14091C1.77432 21.2712 0.666627 22.3814 0.666627 23.7505ZM7.26512 23.7505V30.3618C7.26512 31.7313 8.37281 32.8415 9.7394 32.8415C10.3963 32.8408 11.0261 32.5793 11.4902 32.1143C11.9542 31.6494 12.2146 31.0192 12.2141 30.3622V23.7505C12.2144 23.4252 12.1507 23.103 12.0265 22.8024C11.9023 22.5017 11.7201 22.2285 11.4903 21.9983C11.2605 21.7681 10.9876 21.5854 10.6872 21.4606C10.3867 21.3359 10.0647 21.2715 9.7394 21.2712C8.37281 21.2712 7.26512 22.3814 7.26512 23.7505Z" fill="#E01E5A"/>
</g>
<defs>
<clipPath id="clip0_13_10524">
<rect width="100" height="39.6694" fill="white" transform="translate(0.666626 0.85498)"/>
</clipPath>
</defs>
</svg>
