<svg width="100" height="35" viewBox="0 0 100 35" fill="none" xmlns="http://www.w3.org/2000/svg">
<g clip-path="url(#clip0_13_10523)">
<path d="M15.0519 2.74609C6.76766 2.74609 0.0516357 9.46194 0.0516357 17.7462C0.0516357 26.0308 6.76766 32.7461 15.0519 32.7461C23.3371 32.7461 30.0524 26.0308 30.0524 17.7462C30.0524 9.46248 23.3371 2.74681 15.0517 2.74681L15.0519 2.74609ZM21.9309 24.3805C21.6623 24.8212 21.0855 24.9609 20.6448 24.6904C17.1229 22.5391 12.6893 22.0519 7.46785 23.2449C6.9647 23.3595 6.46315 23.0443 6.34852 22.5409C6.23334 22.0376 6.54734 21.5361 7.05175 21.4214C12.7658 20.116 17.6671 20.6781 21.6211 23.0944C22.0617 23.3649 22.2014 23.9399 21.9309 24.3805ZM23.7669 20.2962C23.4284 20.8464 22.7083 21.0202 22.1584 20.6816C18.1264 18.2033 11.9801 17.4856 7.21099 18.9332C6.59248 19.1201 5.93922 18.7715 5.7515 18.154C5.56521 17.5355 5.91396 16.8835 6.5314 16.6954C11.9791 15.0425 18.7515 15.8432 23.3818 18.6885C23.9317 19.0271 24.1055 19.7472 23.7669 20.2964V20.2962ZM23.9246 16.0431C19.09 13.1716 11.1137 12.9075 6.4979 14.3085C5.75669 14.5333 4.97285 14.1148 4.74823 13.3736C4.52361 12.6321 4.94169 11.8487 5.68343 11.6234C10.9821 10.0149 19.7904 10.3257 25.3565 13.6299C26.0246 14.0256 26.2431 14.8867 25.8473 15.5525C25.4532 16.2192 24.5898 16.4389 23.9253 16.0431H23.9246ZM40.8624 16.5933C38.2723 15.9757 37.812 15.5423 37.812 14.6314C37.812 13.7709 38.6216 13.1918 39.8271 13.1918C40.995 13.1918 42.1521 13.6316 43.3666 14.5368C43.4024 14.5642 43.4489 14.5752 43.4937 14.568C43.5403 14.5612 43.5797 14.5363 43.6066 14.4989L44.8712 12.7162C44.9231 12.6428 44.9088 12.5416 44.8389 12.4855C43.3934 11.3261 41.767 10.7624 39.8647 10.7624C37.0686 10.7624 35.1144 12.4406 35.1144 14.8417C35.1144 17.4166 36.7999 18.3283 39.7124 19.0321C42.1897 19.603 42.6089 20.0812 42.6089 20.936C42.6089 21.8836 41.7634 22.4729 40.4021 22.4729C38.8903 22.4729 37.6561 21.9624 36.2769 20.7694C36.2428 20.739 36.1963 20.7264 36.1533 20.7282C36.1067 20.7318 36.0655 20.7533 36.0368 20.7873L34.6182 22.4747C34.5591 22.5463 34.5663 22.6502 34.6343 22.7111C36.2393 24.1441 38.2132 24.9 40.3448 24.9C43.3576 24.9 45.3047 23.2538 45.3047 20.7049C45.31 18.5542 44.0221 17.363 40.8678 16.5957L40.8624 16.5933ZM52.1221 14.0391C50.8163 14.0391 49.7451 14.5535 48.8602 15.6076V14.4211C48.8602 14.3274 48.785 14.2511 48.6919 14.2511H46.3722C46.2791 14.2511 46.2039 14.3274 46.2039 14.4211V27.6047C46.2039 27.6979 46.2791 27.7749 46.3722 27.7749H48.6919C48.785 27.7749 48.8602 27.6979 48.8602 27.6047V23.4437C49.7451 24.4343 50.8163 24.9197 52.1221 24.9197C54.5492 24.9197 57.0068 23.0514 57.0068 19.4799C57.0103 15.9077 54.5528 14.0389 52.1239 14.0389L52.1221 14.0391ZM54.3092 19.4799C54.3092 21.2978 53.1896 22.5678 51.5847 22.5678C49.9995 22.5678 48.8029 21.2405 48.8029 19.4799C48.8029 17.7191 49.9995 16.3922 51.5847 16.3922C53.1628 16.392 54.3092 17.6903 54.3092 19.4797V19.4799ZM63.3029 14.0391C60.1772 14.0391 57.7286 16.4458 57.7286 19.5188C57.7286 22.5588 60.1611 24.9394 63.2653 24.9394C66.4017 24.9394 68.8575 22.5409 68.8575 19.4799C68.8575 16.4293 66.4179 14.0394 63.3029 14.0394V14.0391ZM63.3029 22.5857C61.6407 22.5857 60.3868 21.2495 60.3868 19.479C60.3868 17.7005 61.5977 16.4099 63.2653 16.4099C64.9383 16.4099 66.1993 17.7456 66.1993 19.5179C66.1993 21.296 64.9813 22.5857 63.3029 22.5857ZM75.5316 14.2511H72.9791V11.642C72.9791 11.5485 72.9039 11.4722 72.8108 11.4722H70.4911C70.398 11.4722 70.3209 11.5485 70.3209 11.642V14.2511H69.2068C69.1137 14.2511 69.0384 14.3274 69.0384 14.4211V16.4142C69.0384 16.5077 69.1137 16.5842 69.2068 16.5842H70.3209V21.7421C70.3209 23.8252 71.3581 24.8821 73.4054 24.8821C74.2366 24.8821 74.9262 24.7101 75.5764 24.3411C75.6301 24.3125 75.6624 24.2551 75.6624 24.1942V22.2955C75.6624 22.2382 75.6319 22.1827 75.5818 22.1522C75.5316 22.12 75.4689 22.1182 75.417 22.1451C74.971 22.369 74.5393 22.4729 74.0556 22.4729C73.3123 22.4729 72.9791 22.1343 72.9791 21.3784V16.5851H75.5316C75.6248 16.5851 75.7 16.5088 75.7 16.4151V14.4222C75.7036 14.3285 75.6283 14.2522 75.5334 14.2522L75.5316 14.2511ZM84.4233 14.2614V13.9409C84.4233 12.9982 84.7851 12.5778 85.5947 12.5778C86.0784 12.5778 86.4671 12.6738 86.9023 12.8189C86.9561 12.8357 87.0116 12.8273 87.0546 12.7952C87.0994 12.7632 87.1244 12.7118 87.1244 12.6573V10.7031C87.1244 10.6284 87.0779 10.5623 87.0044 10.5403C86.5459 10.4036 85.9584 10.2633 85.0771 10.2633C82.9366 10.2633 81.8027 11.4695 81.8027 13.7503V14.2411H80.6886C80.5954 14.2411 80.5184 14.3174 80.5184 14.4109V16.4142C80.5184 16.5077 80.5954 16.5842 80.6886 16.5842H81.8027V24.5382C81.8027 24.6331 81.8797 24.7083 81.9729 24.7083H84.2907C84.3857 24.7083 84.4609 24.6331 84.4609 24.5382V16.5848H86.6265L89.9438 24.5382C89.5677 25.3729 89.1969 25.5394 88.6918 25.5394C88.2834 25.5394 87.8517 25.4176 87.4128 25.1758C87.3716 25.1543 87.3215 25.1508 87.2785 25.1633C87.2337 25.1794 87.1961 25.2117 87.1782 25.2546L86.3918 26.9796C86.3542 27.062 86.3865 27.1569 86.4653 27.1999C87.2857 27.6441 88.0254 27.834 88.9408 27.834C90.6532 27.834 91.6007 27.0351 92.4336 24.8892L96.4567 14.4935C96.4782 14.4412 96.4711 14.3821 96.4388 14.3357C96.4084 14.2897 96.3564 14.2619 96.3009 14.2619H93.8863C93.8129 14.2619 93.7484 14.3079 93.7251 14.3758L91.2514 21.4393L88.5431 14.3712C88.518 14.3054 88.4553 14.2619 88.3855 14.2619H84.4233V14.2614ZM79.2681 14.2511H76.9485C76.8553 14.2511 76.7783 14.3274 76.7783 14.4211V24.5382C76.7783 24.6331 76.8553 24.7083 76.9485 24.7083H79.2681C79.3613 24.7083 79.4383 24.6331 79.4383 24.5382V14.4218C79.4383 14.3282 79.3631 14.2519 79.2681 14.2519V14.2511ZM78.1217 9.64429C77.2028 9.64429 76.4577 10.388 76.4577 11.3067C76.4577 12.226 77.2028 12.9706 78.1217 12.9706C79.0406 12.9706 79.784 12.226 79.784 11.3067C79.784 10.3882 79.0388 9.64429 78.1217 9.64429ZM98.4378 17.5042C97.5207 17.5042 96.806 16.7671 96.806 15.872C96.806 14.9769 97.5297 14.2314 98.4468 14.2314C99.3639 14.2314 100.079 14.9683 100.079 15.8627C100.079 16.7578 99.3549 17.5042 98.4378 17.5042ZM98.4468 14.3937C97.6103 14.3937 96.978 15.0583 96.978 15.872C96.978 16.6854 97.6067 17.341 98.4378 17.341C99.2743 17.341 99.9066 16.677 99.9066 15.8627C99.9066 15.0493 99.2779 14.3937 98.4468 14.3937ZM98.8086 16.0305L99.2708 16.6768H98.8803L98.4647 16.0839H98.1082V16.6768H97.7822V14.9637H98.5453C98.9447 14.9637 99.2063 15.1674 99.2063 15.5102C99.2081 15.7911 99.0451 15.9627 98.8104 16.0305H98.8086ZM98.5328 15.2576H98.1082V15.7995H98.5328C98.7441 15.7995 98.8713 15.6958 98.8713 15.5283C98.8713 15.352 98.7441 15.2576 98.5328 15.2576Z" fill="#1ED760"/>
</g>
<defs>
<clipPath id="clip0_13_10523">
<rect width="100" height="34.2857" fill="white" transform="translate(0 0.546753)"/>
</clipPath>
</defs>
</svg>
