<svg width="251" height="52" viewBox="0 0 251 52" fill="none" xmlns="http://www.w3.org/2000/svg">
<path d="M11.6 2H28.4C34.8 2 40 7.2 40 13.6V30.4C40 33.4765 38.7779 36.427 36.6024 38.6024C34.427 40.7779 31.4765 42 28.4 42H11.6C5.2 42 0 36.8 0 30.4V13.6C0 10.5235 1.22214 7.57298 3.39756 5.39756C5.57298 3.22214 8.52349 2 11.6 2ZM11.2 6C9.29044 6 7.45909 6.75857 6.10883 8.10883C4.75857 9.45909 4 11.2904 4 13.2V30.8C4 34.78 7.22 38 11.2 38H28.8C30.7096 38 32.5409 37.2414 33.8912 35.8912C35.2414 34.5409 36 32.7096 36 30.8V13.2C36 9.22 32.78 6 28.8 6H11.2ZM30.5 9C31.163 9 31.7989 9.26339 32.2678 9.73223C32.7366 10.2011 33 10.837 33 11.5C33 12.163 32.7366 12.7989 32.2678 13.2678C31.7989 13.7366 31.163 14 30.5 14C29.837 14 29.2011 13.7366 28.7322 13.2678C28.2634 12.7989 28 12.163 28 11.5C28 10.837 28.2634 10.2011 28.7322 9.73223C29.2011 9.26339 29.837 9 30.5 9ZM20 12C22.6522 12 25.1957 13.0536 27.0711 14.9289C28.9464 16.8043 30 19.3478 30 22C30 24.6522 28.9464 27.1957 27.0711 29.0711C25.1957 30.9464 22.6522 32 20 32C17.3478 32 14.8043 30.9464 12.9289 29.0711C11.0536 27.1957 10 24.6522 10 22C10 19.3478 11.0536 16.8043 12.9289 14.9289C14.8043 13.0536 17.3478 12 20 12ZM20 16C18.4087 16 16.8826 16.6321 15.7574 17.7574C14.6321 18.8826 14 20.4087 14 22C14 23.5913 14.6321 25.1174 15.7574 26.2426C16.8826 27.3679 18.4087 28 20 28C21.5913 28 23.1174 27.3679 24.2426 26.2426C25.3679 25.1174 26 23.5913 26 22C26 20.4087 25.3679 18.8826 24.2426 17.7574C23.1174 16.6321 21.5913 16 20 16Z" fill="black"/>
<path d="M128.236 39.3694V24.0019H133.65L134.455 17.985H128.236V14.1525C128.236 12.4163 128.741 11.2275 131.344 11.2275H134.641V5.86314C133.037 5.6985 131.424 5.619 129.81 5.62501C125.024 5.62501 121.738 8.42251 121.738 13.5581V17.9738H116.358V23.9906H121.75V39.3694H128.236Z" fill="black"/>
<path fill-rule="evenodd" clip-rule="evenodd" d="M221.225 8.08665C221.099 8.06458 220.971 8.06121 220.844 8.07665C218.321 8.37998 214.481 9.89332 212.213 11.26C212.063 11.3508 211.929 11.4704 211.817 11.6133C210.875 12.81 210.02 14.76 209.351 16.6067C208.661 18.5 208.091 20.5 207.77 21.9467C206.708 26.6467 206.129 32.29 206.051 37.6433C206.048 37.9104 206.106 38.174 206.219 38.41C207.119 40.32 209.06 42.09 211.004 43.3833C212.969 44.6933 215.264 45.7267 217.112 45.9267C217.333 45.9501 217.557 45.9163 217.764 45.8278C217.972 45.7393 218.158 45.5986 218.309 45.4166C218.771 44.86 219.557 43.56 220.151 42.55C220.421 42.09 220.676 41.65 220.874 41.3C222.86 41.7 225.35 41.9333 228.5 41.9333C231.644 41.9333 234.134 41.7 236.12 41.3C236.318 41.6533 236.57 42.09 236.84 42.5466C237.434 43.56 238.22 44.86 238.685 45.4166C238.835 45.5986 239.022 45.7393 239.229 45.8278C239.437 45.9163 239.66 45.9501 239.882 45.9267C241.73 45.7267 244.022 44.6933 245.987 43.3833C247.931 42.09 249.872 40.32 250.775 38.41C250.887 38.1737 250.943 37.9102 250.94 37.6433C250.865 32.29 250.283 26.6433 249.227 21.9433C248.803 20.1281 248.272 18.3454 247.64 16.6067C246.971 14.76 246.116 12.8067 245.177 11.6133C245.064 11.4701 244.929 11.3504 244.778 11.26C242.513 9.89332 238.673 8.37998 236.147 8.07665C236.021 8.06151 235.894 8.06487 235.769 8.08665C235.203 8.20755 234.673 8.47987 234.224 8.87998C233.218 9.7801 232.404 10.9175 231.842 12.21C230.73 12.1131 229.615 12.0653 228.5 12.0667C227.294 12.0667 226.178 12.1167 225.149 12.2067C224.586 10.9154 223.773 9.77914 222.767 8.87998C222.318 8.48036 221.789 8.20807 221.225 8.08665ZM239.054 40.46C239.476 41.1824 239.909 41.897 240.353 42.6033C241.541 42.3033 243.056 41.6033 244.508 40.6366C246.137 39.5533 247.43 38.3033 248.054 37.2467C247.955 32.2267 247.397 27.0133 246.434 22.72C246.042 21.0478 245.553 19.4055 244.97 17.8033C244.37 16.1433 243.725 14.7367 243.164 13.93C241.214 12.8067 238.139 11.62 236.135 11.2967C236.075 11.3373 236.016 11.3818 235.961 11.43C235.712 11.6473 235.485 11.8931 235.283 12.1633C235.165 12.3198 235.052 12.481 234.944 12.6467C235.859 12.8333 236.675 13.0567 237.398 13.3033C239.45 14.0033 240.929 14.97 241.652 16.04C241.881 16.3795 241.979 16.8062 241.925 17.2263C241.871 17.6463 241.669 18.0254 241.364 18.28C241.213 18.4061 241.04 18.4978 240.857 18.5499C240.674 18.6021 240.483 18.6136 240.296 18.5839C239.918 18.5239 239.577 18.2995 239.348 17.96C239.171 17.7 238.4 16.9933 236.552 16.36C234.767 15.7533 232.142 15.2667 228.5 15.2667C224.858 15.2667 222.23 15.7533 220.448 16.3633C218.6 16.9967 217.829 17.6967 217.652 17.96C217.538 18.1281 217.396 18.2697 217.234 18.3767C217.071 18.4838 216.891 18.5542 216.704 18.5839C216.325 18.6439 215.941 18.5346 215.636 18.28C215.485 18.1539 215.357 17.996 215.261 17.8152C215.164 17.6344 215.101 17.4343 215.074 17.2263C215.02 16.8062 215.119 16.3795 215.348 16.04C216.071 14.9667 217.55 14.0067 219.602 13.3067C220.322 13.0567 221.138 12.8367 222.05 12.65C221.942 12.4825 221.828 12.3202 221.708 12.1633C221.507 11.8933 221.28 11.6475 221.033 11.43C220.976 11.3817 220.917 11.3372 220.856 11.2967C218.855 11.62 215.78 12.8067 213.83 13.93C213.266 14.74 212.624 16.1433 212.021 17.8033C211.382 19.57 210.851 21.4267 210.56 22.72C209.594 27.0133 209.036 32.2267 208.94 37.2467C209.564 38.3067 210.854 39.5533 212.483 40.64C213.938 41.6066 215.45 42.3066 216.641 42.6033C217.089 41.9004 217.522 41.1858 217.94 40.46C215.585 39.53 214.322 38.2533 213.5 36.8866C213.395 36.7116 213.322 36.5152 213.286 36.3089C213.249 36.1026 213.25 35.8903 213.287 35.6841C213.324 35.478 213.398 35.282 213.503 35.1075C213.609 34.9329 213.744 34.7831 213.902 34.6667C214.059 34.5502 214.236 34.4694 214.422 34.4288C214.608 34.3883 214.799 34.3887 214.984 34.4302C215.17 34.4717 215.346 34.5534 215.503 34.6706C215.66 34.7878 215.795 34.9382 215.9 35.1133C216.68 36.42 218.732 38.7333 228.5 38.7333C238.271 38.7333 240.32 36.42 241.1 35.1133C241.312 34.7597 241.641 34.514 242.016 34.4302C242.39 34.3464 242.78 34.4315 243.098 34.6667C243.416 34.9018 243.637 35.2678 243.713 35.6841C243.788 36.1005 243.712 36.533 243.5 36.8866C242.678 38.2533 241.412 39.5333 239.054 40.46ZM218.24 25.3733C218.972 24.5 219.965 24.0067 221 24C222.035 24.0067 223.028 24.5 223.76 25.3733C224.489 26.25 224.9 27.4333 224.9 28.6667C224.9 29.9 224.489 31.0833 223.76 31.96C223.028 32.8333 222.035 33.3267 221 33.3333C220.48 33.3272 219.966 33.2021 219.491 32.9659C219.016 32.7296 218.59 32.3872 218.24 31.96C217.501 31.0605 217.094 29.8846 217.1 28.6667C217.1 27.4333 217.511 26.25 218.24 25.3733ZM236 24C234.965 24.0067 233.972 24.5 233.24 25.3733C232.511 26.25 232.1 27.4333 232.1 28.6667C232.1 29.9 232.511 31.0833 233.24 31.96C233.972 32.8333 234.965 33.3267 236 33.3333C237.035 33.3267 238.028 32.8333 238.76 31.96C239.489 31.0833 239.9 29.9 239.9 28.6667C239.9 27.4333 239.489 26.25 238.76 25.3733C238.409 24.9461 237.983 24.6037 237.509 24.3674C237.034 24.1312 236.52 24.0061 236 24Z" fill="black"/>
</svg>
