<svg width="17" height="19" viewBox="0 0 17 19" fill="none" xmlns="http://www.w3.org/2000/svg">
<mask id="path-1-outside-1_102_1474" maskUnits="userSpaceOnUse" x="0" y="0.94397" width="17" height="18" fill="black">
<rect fill="white" y="0.94397" width="17" height="18"/>
<path fill-rule="evenodd" clip-rule="evenodd" d="M6.30773 2.94397C6.30773 2.39168 6.75545 1.94397 7.30773 1.94397H9.30773C9.86002 1.94397 10.3077 2.39168 10.3077 2.94397V3.57817C10.3077 4.00195 10.5789 4.3724 10.9589 4.5599C11.039 4.59943 11.1181 4.6407 11.1962 4.68365C11.5678 4.88813 12.0271 4.89796 12.3745 4.65469L12.8946 4.2905C13.3471 3.97372 13.9706 4.08367 14.2874 4.53607L15.4345 6.17437C15.7513 6.62678 15.6414 7.25033 15.1889 7.5671L14.669 7.93114C14.322 8.17413 14.174 8.60849 14.2382 9.02725C14.284 9.3261 14.3077 9.63224 14.3077 9.94397C14.3077 10.2556 14.284 10.5617 14.2382 10.8605C14.174 11.2792 14.322 11.7135 14.669 11.9565L15.189 12.3206C15.6414 12.6374 15.7514 13.2609 15.4346 13.7133L14.2875 15.3516C13.9707 15.804 13.3471 15.914 12.8947 15.5972L12.3747 15.233C12.0273 14.9898 11.5679 14.9996 11.1964 15.2041C11.1183 15.2471 11.0391 15.2884 10.9589 15.328C10.5789 15.5155 10.3077 15.886 10.3077 16.3098V16.944C10.3077 17.4963 9.86002 17.944 9.30773 17.944H7.30773C6.75545 17.944 6.30773 17.4963 6.30773 16.944V16.3098C6.30773 15.886 6.0366 15.5155 5.65657 15.328C5.57639 15.2884 5.49722 15.2471 5.41911 15.2041C5.04754 14.9996 4.58817 14.9898 4.24074 15.2331L3.72083 15.5971C3.26843 15.9139 2.64485 15.804 2.32806 15.3516L1.18093 13.7133C0.864156 13.2609 0.974104 12.6374 1.42651 12.3206L1.94647 11.9565C2.29346 11.7135 2.44146 11.2792 2.37729 10.8605C2.33149 10.5617 2.30773 10.2556 2.30773 9.94397C2.30773 9.63224 2.33151 9.32609 2.37733 9.02724C2.44154 8.60849 2.29354 8.17413 1.9465 7.93114L1.42659 7.5671C0.974176 7.25033 0.864222 6.62678 1.181 6.17437L2.32814 4.53608C2.64492 4.08367 3.26848 3.97373 3.72088 4.29052L4.24093 4.65467C4.58835 4.89795 5.04772 4.88813 5.4193 4.68365C5.49735 4.6407 5.57646 4.59943 5.65657 4.5599C6.03662 4.3724 6.30773 4.00195 6.30773 3.57817V2.94397ZM8.30853 11.944C9.4131 11.944 10.3085 11.0485 10.3085 9.94397C10.3085 8.8394 9.4131 7.94397 8.30853 7.94397C7.20396 7.94397 6.30853 8.8394 6.30853 9.94397C6.30853 11.0485 7.20396 11.944 8.30853 11.944Z"/>
</mask>
<path fill-rule="evenodd" clip-rule="evenodd" d="M6.30773 2.94397C6.30773 2.39168 6.75545 1.94397 7.30773 1.94397H9.30773C9.86002 1.94397 10.3077 2.39168 10.3077 2.94397V3.57817C10.3077 4.00195 10.5789 4.3724 10.9589 4.5599C11.039 4.59943 11.1181 4.6407 11.1962 4.68365C11.5678 4.88813 12.0271 4.89796 12.3745 4.65469L12.8946 4.2905C13.3471 3.97372 13.9706 4.08367 14.2874 4.53607L15.4345 6.17437C15.7513 6.62678 15.6414 7.25033 15.1889 7.5671L14.669 7.93114C14.322 8.17413 14.174 8.60849 14.2382 9.02725C14.284 9.3261 14.3077 9.63224 14.3077 9.94397C14.3077 10.2556 14.284 10.5617 14.2382 10.8605C14.174 11.2792 14.322 11.7135 14.669 11.9565L15.189 12.3206C15.6414 12.6374 15.7514 13.2609 15.4346 13.7133L14.2875 15.3516C13.9707 15.804 13.3471 15.914 12.8947 15.5972L12.3747 15.233C12.0273 14.9898 11.5679 14.9996 11.1964 15.2041C11.1183 15.2471 11.0391 15.2884 10.9589 15.328C10.5789 15.5155 10.3077 15.886 10.3077 16.3098V16.944C10.3077 17.4963 9.86002 17.944 9.30773 17.944H7.30773C6.75545 17.944 6.30773 17.4963 6.30773 16.944V16.3098C6.30773 15.886 6.0366 15.5155 5.65657 15.328C5.57639 15.2884 5.49722 15.2471 5.41911 15.2041C5.04754 14.9996 4.58817 14.9898 4.24074 15.2331L3.72083 15.5971C3.26843 15.9139 2.64485 15.804 2.32806 15.3516L1.18093 13.7133C0.864156 13.2609 0.974104 12.6374 1.42651 12.3206L1.94647 11.9565C2.29346 11.7135 2.44146 11.2792 2.37729 10.8605C2.33149 10.5617 2.30773 10.2556 2.30773 9.94397C2.30773 9.63224 2.33151 9.32609 2.37733 9.02724C2.44154 8.60849 2.29354 8.17413 1.9465 7.93114L1.42659 7.5671C0.974176 7.25033 0.864222 6.62678 1.181 6.17437L2.32814 4.53608C2.64492 4.08367 3.26848 3.97373 3.72088 4.29052L4.24093 4.65467C4.58835 4.89795 5.04772 4.88813 5.4193 4.68365C5.49735 4.6407 5.57646 4.59943 5.65657 4.5599C6.03662 4.3724 6.30773 4.00195 6.30773 3.57817V2.94397ZM8.30853 11.944C9.4131 11.944 10.3085 11.0485 10.3085 9.94397C10.3085 8.8394 9.4131 7.94397 8.30853 7.94397C7.20396 7.94397 6.30853 8.8394 6.30853 9.94397C6.30853 11.0485 7.20396 11.944 8.30853 11.944Z" fill="#EAEAEA"/>
<path d="M1.42659 7.5671L2.00016 6.74794L1.42659 7.5671ZM1.181 6.17437L0.361852 5.60079L1.181 6.17437ZM1.9465 7.93114L1.37294 8.7503L1.9465 7.93114ZM2.37729 10.8605L1.38883 11.012L2.37729 10.8605ZM1.18093 13.7133L2.00009 13.1397L1.18093 13.7133ZM1.42651 12.3206L2.00009 13.1397L1.42651 12.3206ZM2.32806 15.3516L1.50891 15.9252L2.32806 15.3516ZM5.41911 15.2041L4.93686 16.0801L5.41911 15.2041ZM4.24074 15.2331L3.66713 14.4139L4.24074 15.2331ZM5.65657 15.328L5.21401 16.2247L5.65657 15.328ZM10.9589 15.328L10.5163 14.4312L10.9589 15.328ZM12.8947 15.5972L13.4683 14.778L12.8947 15.5972ZM15.4346 13.7133L14.6154 13.1398L15.4346 13.7133ZM14.669 11.9565L14.0955 12.7757L14.669 11.9565ZM14.669 7.93114L15.2426 8.7503L14.669 7.93114ZM14.2382 9.02725L13.2497 9.17875L14.2382 9.02725ZM12.8946 4.2905L12.3211 3.47135L12.8946 4.2905ZM10.9589 4.5599L10.5164 5.45669L10.9589 4.5599ZM5.4193 4.68365L4.93717 3.80754L5.4193 4.68365ZM12.3747 15.233L11.8011 16.0522L12.3747 15.233ZM11.1964 15.2041L10.7141 14.3281L11.1964 15.2041ZM2.32814 4.53608L1.50899 3.96251L2.32814 4.53608ZM3.72088 4.29052L3.14729 5.10966L3.72088 4.29052ZM9.30773 0.94397H7.30773V2.94397H9.30773V0.94397ZM11.3077 3.57817V2.94397H9.30773V3.57817H11.3077ZM11.6783 3.80755C11.5872 3.75742 11.4949 3.70926 11.4014 3.66312L10.5164 5.45669C10.5832 5.48961 10.649 5.52398 10.7141 5.55975L11.6783 3.80755ZM12.3211 3.47135L11.801 3.83553L12.9481 5.47384L13.4682 5.10965L12.3211 3.47135ZM16.2537 5.60079L15.1065 3.96249L13.4682 5.10965L14.6154 6.74794L16.2537 5.60079ZM15.2426 8.7503L15.7625 8.38626L14.6154 6.74794L14.0955 7.11198L15.2426 8.7503ZM15.3077 9.94397C15.3077 9.58137 15.2801 9.22458 15.2266 8.87575L13.2497 9.17875C13.2879 9.42761 13.3077 9.68311 13.3077 9.94397H15.3077ZM15.2266 11.012C15.2801 10.6632 15.3077 10.3065 15.3077 9.94397H13.3077C13.3077 10.2047 13.2879 10.4601 13.2497 10.709L15.2266 11.012ZM15.7626 11.5014L15.2426 11.1373L14.0955 12.7757L14.6154 13.1398L15.7626 11.5014ZM15.1066 15.9252L16.2537 14.2869L14.6154 13.1398L13.4683 14.778L15.1066 15.9252ZM11.8011 16.0522L12.3211 16.4163L13.4683 14.778L12.9483 14.4139L11.8011 16.0522ZM11.4015 16.2247C11.4951 16.1785 11.5875 16.1303 11.6786 16.0801L10.7141 14.3281C10.6491 14.3639 10.5831 14.3983 10.5163 14.4312L11.4015 16.2247ZM11.3077 16.944V16.3098H9.30773V16.944H11.3077ZM7.30773 18.944H9.30773V16.944H7.30773V18.944ZM5.30773 16.3098V16.944H7.30773V16.3098H5.30773ZM4.93686 16.0801C5.02801 16.1303 5.12041 16.1785 5.21401 16.2247L6.09912 14.4312C6.03236 14.3983 5.96642 14.3639 5.90135 14.3281L4.93686 16.0801ZM4.29445 16.4163L4.81436 16.0522L3.66713 14.4139L3.14722 14.778L4.29445 16.4163ZM0.361783 14.2869L1.50891 15.9252L3.14722 14.778L2.00009 13.1397L0.361783 14.2869ZM1.37289 11.1374L0.852934 11.5014L2.00009 13.1397L2.52004 12.7757L1.37289 11.1374ZM1.30773 9.94397C1.30773 10.3065 1.33538 10.6632 1.38883 11.012L3.36575 10.709C3.32761 10.4602 3.30773 10.2047 3.30773 9.94397H1.30773ZM1.38888 8.87569C1.3354 9.22451 1.30773 9.58132 1.30773 9.94397H3.30773C3.30773 9.68315 3.32762 9.42767 3.36578 9.1788L1.38888 8.87569ZM0.853028 8.38626L1.37294 8.7503L2.52007 7.11198L2.00016 6.74794L0.853028 8.38626ZM1.50899 3.96251L0.361852 5.60079L2.00016 6.74794L3.14729 5.10966L1.50899 3.96251ZM4.81452 3.83553L4.29447 3.47138L3.14729 5.10966L3.66734 5.47381L4.81452 3.83553ZM5.21411 3.66312C5.12059 3.70926 5.02826 3.75742 4.93717 3.80754L5.90143 5.55975C5.96644 5.52397 6.03232 5.48961 6.09903 5.45669L5.21411 3.66312ZM5.30773 2.94397V3.57817H7.30773V2.94397H5.30773ZM9.30853 9.94397C9.30853 10.4963 8.86081 10.944 8.30853 10.944V12.944C9.96538 12.944 11.3085 11.6008 11.3085 9.94397H9.30853ZM8.30853 8.94397C8.86081 8.94397 9.30853 9.39169 9.30853 9.94397H11.3085C11.3085 8.28712 9.96538 6.94397 8.30853 6.94397V8.94397ZM7.30853 9.94397C7.30853 9.39169 7.75624 8.94397 8.30853 8.94397V6.94397C6.65167 6.94397 5.30853 8.28712 5.30853 9.94397H7.30853ZM8.30853 10.944C7.75624 10.944 7.30853 10.4963 7.30853 9.94397H5.30853C5.30853 11.6008 6.65167 12.944 8.30853 12.944V10.944ZM6.09903 5.45669C6.75882 5.13117 7.30773 4.44686 7.30773 3.57817H5.30773C5.30773 3.57182 5.31065 3.57641 5.29854 3.59416C5.28472 3.61443 5.25685 3.64203 5.21411 3.66312L6.09903 5.45669ZM2.00016 6.74794V6.74794L0.361852 5.60079C-0.271711 6.50561 -0.0518025 7.75272 0.853028 8.38626L2.00016 6.74794ZM3.36578 9.1788C3.47725 8.45179 3.2314 7.61004 2.52007 7.11198L1.37294 8.7503C1.36775 8.74667 1.37319 8.74692 1.38079 8.76703C1.38946 8.78996 1.3961 8.8286 1.38888 8.87569L3.36578 9.1788ZM2.52004 12.7757C3.23128 12.2777 3.47717 11.436 3.36575 10.709L1.38883 11.012C1.39605 11.0591 1.38941 11.0977 1.38074 11.1206C1.37314 11.1407 1.3677 11.141 1.37289 11.1374L2.52004 12.7757ZM2.00009 13.1397H2.00009L0.852934 11.5014C-0.0518781 12.135 -0.271774 13.3821 0.361783 14.2869L2.00009 13.1397ZM3.14722 14.778H3.14722L1.50891 15.9252C2.14249 16.83 3.38964 17.0499 4.29445 16.4163L3.14722 14.778ZM5.90135 14.3281C5.25573 13.9727 4.37927 13.9152 3.66713 14.4139L4.81436 16.0522C4.80917 16.0558 4.81122 16.0508 4.83256 16.0506C4.85693 16.0503 4.89532 16.0573 4.93686 16.0801L5.90135 14.3281ZM7.30773 16.3098C7.30773 15.4411 6.7588 14.7568 6.09912 14.4312L5.21401 16.2247C5.25678 16.2458 5.28468 16.2735 5.29852 16.2938C5.31065 16.3115 5.30773 16.3162 5.30773 16.3098H7.30773ZM7.30773 16.944H5.30773C5.30773 18.0485 6.20317 18.944 7.30773 18.944V16.944ZM9.30773 16.944V18.944C10.4123 18.944 11.3077 18.0485 11.3077 16.944H9.30773ZM10.5163 14.4312C9.85667 14.7568 9.30773 15.4411 9.30773 16.3098H11.3077C11.3077 16.3162 11.3048 16.3115 11.3169 16.2938C11.3308 16.2735 11.3587 16.2458 11.4015 16.2247L10.5163 14.4312ZM13.4683 14.778L12.3211 16.4163C13.2259 17.0499 14.473 16.83 15.1066 15.9252L13.4683 14.778ZM14.6154 13.1398V13.1398L16.2537 14.2869C16.8873 13.3821 16.6674 12.135 15.7626 11.5014L14.6154 13.1398ZM13.2497 10.709C13.1383 11.436 13.3842 12.2777 14.0955 12.7757L15.2426 11.1373C15.2478 11.141 15.2423 11.1407 15.2347 11.1206C15.2261 11.0977 15.2194 11.0591 15.2266 11.012L13.2497 10.709ZM14.0955 7.11198C13.3841 7.61004 13.1383 8.45178 13.2497 9.17875L15.2266 8.87575C15.2194 8.82864 15.2261 8.78999 15.2347 8.76704C15.2423 8.74693 15.2478 8.74666 15.2426 8.7503L14.0955 7.11198ZM14.6154 6.74794L14.6154 6.74794L15.7625 8.38626C16.6673 7.75272 16.8872 6.50561 16.2537 5.60079L14.6154 6.74794ZM13.4682 5.10965V5.10965L15.1065 3.96249C14.473 3.05768 13.2259 2.83779 12.3211 3.47135L13.4682 5.10965ZM10.7141 5.55975C11.3596 5.915 12.236 5.97249 12.9481 5.47384L11.801 3.83553C11.8061 3.8319 11.8041 3.83689 11.7827 3.83714C11.7583 3.83743 11.7199 3.83044 11.6783 3.80755L10.7141 5.55975ZM9.30773 3.57817C9.30773 4.44686 9.85665 5.13117 10.5164 5.45669L11.4014 3.66312C11.3586 3.64203 11.3308 3.61443 11.3169 3.59416C11.3048 3.57641 11.3077 3.57182 11.3077 3.57817H9.30773ZM3.66734 5.47381C4.37949 5.97248 5.25588 5.915 5.90143 5.55975L4.93717 3.80754C4.89559 3.83043 4.85716 3.83742 4.83275 3.83714C4.81139 3.83689 4.80933 3.8319 4.81452 3.83553L3.66734 5.47381ZM7.30773 0.94397C6.20317 0.94397 5.30773 1.8394 5.30773 2.94397H7.30773V0.94397ZM12.9483 14.4139C12.2362 13.9152 11.3597 13.9727 10.7141 14.3281L11.6786 16.0801C11.7202 16.0573 11.7585 16.0503 11.7829 16.0506C11.8043 16.0508 11.8063 16.0558 11.8011 16.0522L12.9483 14.4139ZM3.14729 5.10966L3.14729 5.10966L4.29447 3.47138C3.38966 2.8378 2.14255 3.05769 1.50899 3.96251L3.14729 5.10966ZM9.30773 2.94397H11.3077C11.3077 1.8394 10.4123 0.94397 9.30773 0.94397V2.94397Z" fill="black" fill-opacity="0.1" mask="url(#path-1-outside-1_102_1474)"/>
</svg>
