<svg width="16" height="21" viewBox="0 0 16 21" fill="none" xmlns="http://www.w3.org/2000/svg">
<mask id="path-1-outside-1_102_1265" maskUnits="userSpaceOnUse" x="0" y="-0.0559998" width="16" height="22" fill="black">
<rect fill="white" y="-0.0559998" width="16" height="22"/>
<path fill-rule="evenodd" clip-rule="evenodd" d="M1 7.944H5L10 2.944V18.944L5 13.944H1V7.944ZM12 6.944V14.944L13.65 12.744C14.45 11.6773 14.45 10.2107 13.65 9.144L12 6.944Z"/>
</mask>
<path fill-rule="evenodd" clip-rule="evenodd" d="M1 7.944H5L10 2.944V18.944L5 13.944H1V7.944ZM12 6.944V14.944L13.65 12.744C14.45 11.6773 14.45 10.2107 13.65 9.144L12 6.944Z" fill="#EAEAEA"/>
<path d="M5 7.944V8.944H5.41421L5.70711 8.65111L5 7.944ZM1 7.944V6.944H0V7.944H1ZM10 2.944H11V0.529787L9.29289 2.23689L10 2.944ZM10 18.944L9.29289 19.6511L11 21.3582V18.944H10ZM5 13.944L5.70711 13.2369L5.41421 12.944H5V13.944ZM1 13.944H0V14.944H1V13.944ZM12 14.944H11V17.944L12.8 15.544L12 14.944ZM12 6.944L12.8 6.344L11 3.944V6.944H12ZM13.65 12.744L14.45 13.344L14.45 13.344L13.65 12.744ZM13.65 9.144L14.45 8.544L14.45 8.544L13.65 9.144ZM5 6.944H1V8.944H5V6.944ZM9.29289 2.23689L4.29289 7.23689L5.70711 8.65111L10.7071 3.65111L9.29289 2.23689ZM11 18.944V2.944H9V18.944H11ZM4.29289 14.6511L9.29289 19.6511L10.7071 18.2369L5.70711 13.2369L4.29289 14.6511ZM1 14.944H5V12.944H1V14.944ZM0 7.944V13.944H2V7.944H0ZM13 14.944V6.944H11V14.944H13ZM12.85 12.144L11.2 14.344L12.8 15.544L14.45 13.344L12.85 12.144ZM12.85 9.744C13.3833 10.4551 13.3833 11.4329 12.85 12.144L14.45 13.344C15.5167 11.9218 15.5167 9.96622 14.45 8.544L12.85 9.744ZM11.2 7.544L12.85 9.744L14.45 8.544L12.8 6.344L11.2 7.544Z" fill="black" fill-opacity="0.1" mask="url(#path-1-outside-1_102_1265)"/>
</svg>
