<svg width="17" height="19" viewBox="0 0 17 19" fill="none" xmlns="http://www.w3.org/2000/svg">
<mask id="path-1-outside-1_102_1302" maskUnits="userSpaceOnUse" x="0" y="0.944" width="17" height="18" fill="black">
<rect fill="white" y="0.944" width="17" height="18"/>
<path fill-rule="evenodd" clip-rule="evenodd" d="M6.30773 2.944C6.30773 2.39172 6.75545 1.944 7.30773 1.944H9.30773C9.86002 1.944 10.3077 2.39172 10.3077 2.944V3.5782C10.3077 4.00198 10.5789 4.37243 10.9589 4.55993C11.039 4.59946 11.1181 4.64073 11.1962 4.68368C11.5678 4.88817 12.0271 4.89799 12.3745 4.65472L12.8946 4.29053C13.3471 3.97375 13.9706 4.0837 14.2874 4.5361L15.4345 6.1744C15.7513 6.62681 15.6414 7.25036 15.1889 7.56713L14.669 7.93117C14.322 8.17416 14.174 8.60852 14.2382 9.02728C14.284 9.32613 14.3077 9.63227 14.3077 9.944C14.3077 10.2556 14.284 10.5617 14.2382 10.8605C14.174 11.2793 14.322 11.7136 14.669 11.9565L15.189 12.3206C15.6414 12.6374 15.7514 13.261 15.4346 13.7134L14.2875 15.3516C13.9707 15.804 13.3471 15.914 12.8947 15.5972L12.3747 15.2331C12.0273 14.9898 11.5679 14.9996 11.1964 15.2041C11.1183 15.2471 11.0391 15.2884 10.9589 15.328C10.5789 15.5156 10.3077 15.886 10.3077 16.3098V16.944C10.3077 17.4963 9.86002 17.944 9.30773 17.944H7.30773C6.75545 17.944 6.30773 17.4963 6.30773 16.944V16.3098C6.30773 15.886 6.0366 15.5156 5.65657 15.328C5.57639 15.2884 5.49722 15.2471 5.41911 15.2041C5.04754 14.9996 4.58817 14.9898 4.24074 15.2331L3.72083 15.5972C3.26843 15.914 2.64485 15.804 2.32806 15.3516L1.18093 13.7133C0.864156 13.2609 0.974104 12.6374 1.42651 12.3206L1.94647 11.9565C2.29346 11.7136 2.44146 11.2793 2.37729 10.8606C2.33149 10.5617 2.30773 10.2556 2.30773 9.944C2.30773 9.63227 2.33151 9.32612 2.37733 9.02727C2.44154 8.60852 2.29354 8.17416 1.9465 7.93117L1.42659 7.56713C0.974176 7.25036 0.864222 6.62681 1.181 6.1744L2.32814 4.53611C2.64492 4.0837 3.26848 3.97376 3.72088 4.29055L4.24093 4.6547C4.58835 4.89798 5.04772 4.88816 5.4193 4.68368C5.49735 4.64073 5.57646 4.59946 5.65657 4.55993C6.03662 4.37243 6.30773 4.00198 6.30773 3.5782V2.944ZM8.30853 11.944C9.4131 11.944 10.3085 11.0486 10.3085 9.944C10.3085 8.83943 9.4131 7.944 8.30853 7.944C7.20396 7.944 6.30853 8.83943 6.30853 9.944C6.30853 11.0486 7.20396 11.944 8.30853 11.944Z"/>
</mask>
<path fill-rule="evenodd" clip-rule="evenodd" d="M6.30773 2.944C6.30773 2.39172 6.75545 1.944 7.30773 1.944H9.30773C9.86002 1.944 10.3077 2.39172 10.3077 2.944V3.5782C10.3077 4.00198 10.5789 4.37243 10.9589 4.55993C11.039 4.59946 11.1181 4.64073 11.1962 4.68368C11.5678 4.88817 12.0271 4.89799 12.3745 4.65472L12.8946 4.29053C13.3471 3.97375 13.9706 4.0837 14.2874 4.5361L15.4345 6.1744C15.7513 6.62681 15.6414 7.25036 15.1889 7.56713L14.669 7.93117C14.322 8.17416 14.174 8.60852 14.2382 9.02728C14.284 9.32613 14.3077 9.63227 14.3077 9.944C14.3077 10.2556 14.284 10.5617 14.2382 10.8605C14.174 11.2793 14.322 11.7136 14.669 11.9565L15.189 12.3206C15.6414 12.6374 15.7514 13.261 15.4346 13.7134L14.2875 15.3516C13.9707 15.804 13.3471 15.914 12.8947 15.5972L12.3747 15.2331C12.0273 14.9898 11.5679 14.9996 11.1964 15.2041C11.1183 15.2471 11.0391 15.2884 10.9589 15.328C10.5789 15.5156 10.3077 15.886 10.3077 16.3098V16.944C10.3077 17.4963 9.86002 17.944 9.30773 17.944H7.30773C6.75545 17.944 6.30773 17.4963 6.30773 16.944V16.3098C6.30773 15.886 6.0366 15.5156 5.65657 15.328C5.57639 15.2884 5.49722 15.2471 5.41911 15.2041C5.04754 14.9996 4.58817 14.9898 4.24074 15.2331L3.72083 15.5972C3.26843 15.914 2.64485 15.804 2.32806 15.3516L1.18093 13.7133C0.864156 13.2609 0.974104 12.6374 1.42651 12.3206L1.94647 11.9565C2.29346 11.7136 2.44146 11.2793 2.37729 10.8606C2.33149 10.5617 2.30773 10.2556 2.30773 9.944C2.30773 9.63227 2.33151 9.32612 2.37733 9.02727C2.44154 8.60852 2.29354 8.17416 1.9465 7.93117L1.42659 7.56713C0.974176 7.25036 0.864222 6.62681 1.181 6.1744L2.32814 4.53611C2.64492 4.0837 3.26848 3.97376 3.72088 4.29055L4.24093 4.6547C4.58835 4.89798 5.04772 4.88816 5.4193 4.68368C5.49735 4.64073 5.57646 4.59946 5.65657 4.55993C6.03662 4.37243 6.30773 4.00198 6.30773 3.5782V2.944ZM8.30853 11.944C9.4131 11.944 10.3085 11.0486 10.3085 9.944C10.3085 8.83943 9.4131 7.944 8.30853 7.944C7.20396 7.944 6.30853 8.83943 6.30853 9.944C6.30853 11.0486 7.20396 11.944 8.30853 11.944Z" fill="#EAEAEA"/>
<path d="M1.42659 7.56713L2.00016 6.74797L1.42659 7.56713ZM1.181 6.1744L0.361852 5.60082L1.181 6.1744ZM1.9465 7.93117L1.37294 8.75033L1.9465 7.93117ZM2.37729 10.8606L1.38883 11.0121L2.37729 10.8606ZM1.18093 13.7133L2.00009 13.1398L1.18093 13.7133ZM1.42651 12.3206L2.00009 13.1398L1.42651 12.3206ZM2.32806 15.3516L1.50891 15.9252L2.32806 15.3516ZM5.41911 15.2041L4.93686 16.0802L5.41911 15.2041ZM4.24074 15.2331L3.66713 14.414L4.24074 15.2331ZM5.65657 15.328L5.21401 16.2248L5.65657 15.328ZM10.9589 15.328L10.5163 14.4313L10.9589 15.328ZM12.8947 15.5972L13.4683 14.7781L12.8947 15.5972ZM15.4346 13.7134L14.6154 13.1398L15.4346 13.7134ZM14.669 11.9565L14.0955 12.7757L14.669 11.9565ZM14.669 7.93117L15.2426 8.75033L14.669 7.93117ZM14.2382 9.02728L13.2497 9.17878L14.2382 9.02728ZM12.8946 4.29053L12.3211 3.47138L12.8946 4.29053ZM10.9589 4.55993L10.5164 5.45672L10.9589 4.55993ZM5.4193 4.68368L4.93717 3.80757L5.4193 4.68368ZM12.3747 15.2331L11.8011 16.0522L12.3747 15.2331ZM11.1964 15.2041L10.7141 14.3281L11.1964 15.2041ZM2.32814 4.53611L1.50899 3.96254L2.32814 4.53611ZM3.72088 4.29055L3.14729 5.10969L3.72088 4.29055ZM9.30773 0.944H7.30773V2.944H9.30773V0.944ZM11.3077 3.5782V2.944H9.30773V3.5782H11.3077ZM11.6783 3.80758C11.5872 3.75745 11.4949 3.70929 11.4014 3.66315L10.5164 5.45672C10.5832 5.48964 10.649 5.52401 10.7141 5.55978L11.6783 3.80758ZM12.3211 3.47138L11.801 3.83557L12.9481 5.47387L13.4682 5.10968L12.3211 3.47138ZM16.2537 5.60082L15.1065 3.96252L13.4682 5.10968L14.6154 6.74797L16.2537 5.60082ZM15.2426 8.75033L15.7625 8.38629L14.6154 6.74797L14.0955 7.11201L15.2426 8.75033ZM15.3077 9.944C15.3077 9.5814 15.2801 9.22461 15.2266 8.87578L13.2497 9.17878C13.2879 9.42764 13.3077 9.68314 13.3077 9.944H15.3077ZM15.2266 11.012C15.2801 10.6632 15.3077 10.3065 15.3077 9.944H13.3077C13.3077 10.2047 13.2879 10.4602 13.2497 10.7091L15.2266 11.012ZM15.7626 11.5015L15.2426 11.1374L14.0955 12.7757L14.6154 13.1398L15.7626 11.5015ZM15.1066 15.9252L16.2537 14.2869L14.6154 13.1398L13.4683 14.7781L15.1066 15.9252ZM11.8011 16.0522L12.3211 16.4163L13.4683 14.7781L12.9483 14.4139L11.8011 16.0522ZM11.4015 16.2248C11.4951 16.1786 11.5875 16.1303 11.6786 16.0802L10.7141 14.3281C10.6491 14.3639 10.5831 14.3983 10.5163 14.4313L11.4015 16.2248ZM11.3077 16.944V16.3098H9.30773V16.944H11.3077ZM7.30773 18.944H9.30773V16.944H7.30773V18.944ZM5.30773 16.3098V16.944H7.30773V16.3098H5.30773ZM4.93686 16.0802C5.02801 16.1304 5.12041 16.1786 5.21401 16.2248L6.09912 14.4313C6.03236 14.3983 5.96642 14.3639 5.90135 14.3281L4.93686 16.0802ZM4.29445 16.4163L4.81436 16.0522L3.66713 14.414L3.14722 14.778L4.29445 16.4163ZM0.361783 14.2869L1.50891 15.9252L3.14722 14.778L2.00009 13.1398L0.361783 14.2869ZM1.37289 11.1374L0.852934 11.5015L2.00009 13.1398L2.52004 12.7757L1.37289 11.1374ZM1.30773 9.944C1.30773 10.3065 1.33538 10.6633 1.38883 11.0121L3.36575 10.7091C3.32761 10.4602 3.30773 10.2047 3.30773 9.944H1.30773ZM1.38888 8.87572C1.3354 9.22455 1.30773 9.58135 1.30773 9.944H3.30773C3.30773 9.68318 3.32762 9.4277 3.36578 9.17883L1.38888 8.87572ZM0.853028 8.38629L1.37294 8.75033L2.52007 7.11201L2.00016 6.74797L0.853028 8.38629ZM1.50899 3.96254L0.361852 5.60082L2.00016 6.74797L3.14729 5.10969L1.50899 3.96254ZM4.81452 3.83556L4.29447 3.47141L3.14729 5.10969L3.66734 5.47384L4.81452 3.83556ZM5.21411 3.66315C5.12059 3.70929 5.02826 3.75745 4.93717 3.80757L5.90143 5.55978C5.96644 5.524 6.03232 5.48964 6.09903 5.45672L5.21411 3.66315ZM5.30773 2.944V3.5782H7.30773V2.944H5.30773ZM9.30853 9.944C9.30853 10.4963 8.86081 10.944 8.30853 10.944V12.944C9.96538 12.944 11.3085 11.6009 11.3085 9.944H9.30853ZM8.30853 8.944C8.86081 8.944 9.30853 9.39172 9.30853 9.944H11.3085C11.3085 8.28715 9.96538 6.944 8.30853 6.944V8.944ZM7.30853 9.944C7.30853 9.39172 7.75624 8.944 8.30853 8.944V6.944C6.65167 6.944 5.30853 8.28715 5.30853 9.944H7.30853ZM8.30853 10.944C7.75624 10.944 7.30853 10.4963 7.30853 9.944H5.30853C5.30853 11.6009 6.65167 12.944 8.30853 12.944V10.944ZM6.09903 5.45672C6.75882 5.1312 7.30773 4.44689 7.30773 3.5782H5.30773C5.30773 3.57185 5.31065 3.57644 5.29854 3.59419C5.28472 3.61446 5.25685 3.64206 5.21411 3.66315L6.09903 5.45672ZM2.00016 6.74797V6.74797L0.361852 5.60082C-0.271711 6.50564 -0.0518025 7.75275 0.853028 8.38629L2.00016 6.74797ZM3.36578 9.17883C3.47725 8.45182 3.2314 7.61007 2.52007 7.11201L1.37294 8.75033C1.36775 8.7467 1.37319 8.74696 1.38079 8.76706C1.38946 8.78999 1.3961 8.82863 1.38888 8.87572L3.36578 9.17883ZM2.52004 12.7757C3.23128 12.2777 3.47717 11.436 3.36575 10.7091L1.38883 11.0121C1.39605 11.0591 1.38941 11.0977 1.38074 11.1207C1.37314 11.1408 1.3677 11.141 1.37289 11.1374L2.52004 12.7757ZM2.00009 13.1398H2.00009L0.852934 11.5015C-0.0518781 12.135 -0.271774 13.3821 0.361783 14.2869L2.00009 13.1398ZM3.14722 14.778H3.14722L1.50891 15.9252C2.14249 16.83 3.38964 17.0499 4.29445 16.4163L3.14722 14.778ZM5.90135 14.3281C5.25573 13.9727 4.37927 13.9153 3.66713 14.414L4.81436 16.0522C4.80917 16.0558 4.81122 16.0509 4.83256 16.0506C4.85693 16.0503 4.89532 16.0573 4.93686 16.0802L5.90135 14.3281ZM7.30773 16.3098C7.30773 15.4411 6.7588 14.7568 6.09912 14.4313L5.21401 16.2248C5.25678 16.2459 5.28468 16.2735 5.29852 16.2938C5.31065 16.3116 5.30773 16.3162 5.30773 16.3098H7.30773ZM7.30773 16.944H5.30773C5.30773 18.0486 6.20317 18.944 7.30773 18.944V16.944ZM9.30773 16.944V18.944C10.4123 18.944 11.3077 18.0486 11.3077 16.944H9.30773ZM10.5163 14.4313C9.85667 14.7568 9.30773 15.4411 9.30773 16.3098H11.3077C11.3077 16.3162 11.3048 16.3116 11.3169 16.2938C11.3308 16.2735 11.3587 16.2459 11.4015 16.2248L10.5163 14.4313ZM13.4683 14.7781L12.3211 16.4163C13.2259 17.0499 14.473 16.83 15.1066 15.9252L13.4683 14.7781ZM14.6154 13.1398V13.1398L16.2537 14.2869C16.8873 13.3821 16.6674 12.135 15.7626 11.5015L14.6154 13.1398ZM13.2497 10.7091C13.1383 11.436 13.3842 12.2777 14.0955 12.7757L15.2426 11.1374C15.2478 11.141 15.2423 11.1407 15.2347 11.1207C15.2261 11.0977 15.2194 11.0591 15.2266 11.012L13.2497 10.7091ZM14.0955 7.11201C13.3841 7.61007 13.1383 8.45181 13.2497 9.17878L15.2266 8.87578C15.2194 8.82867 15.2261 8.79002 15.2347 8.76707C15.2423 8.74696 15.2478 8.7467 15.2426 8.75033L14.0955 7.11201ZM14.6154 6.74797L14.6154 6.74797L15.7625 8.38629C16.6673 7.75275 16.8872 6.50564 16.2537 5.60082L14.6154 6.74797ZM13.4682 5.10968V5.10968L15.1065 3.96252C14.473 3.05771 13.2259 2.83782 12.3211 3.47138L13.4682 5.10968ZM10.7141 5.55978C11.3596 5.91503 12.236 5.97252 12.9481 5.47387L11.801 3.83557C11.8061 3.83193 11.8041 3.83693 11.7827 3.83717C11.7583 3.83746 11.7199 3.83047 11.6783 3.80758L10.7141 5.55978ZM9.30773 3.5782C9.30773 4.44689 9.85665 5.1312 10.5164 5.45672L11.4014 3.66315C11.3586 3.64206 11.3308 3.61446 11.3169 3.59419C11.3048 3.57644 11.3077 3.57185 11.3077 3.5782H9.30773ZM3.66734 5.47384C4.37949 5.97251 5.25588 5.91503 5.90143 5.55978L4.93717 3.80757C4.89559 3.83046 4.85716 3.83745 4.83275 3.83717C4.81139 3.83692 4.80933 3.83193 4.81452 3.83556L3.66734 5.47384ZM7.30773 0.944C6.20317 0.944 5.30773 1.83943 5.30773 2.944H7.30773V0.944ZM12.9483 14.4139C12.2362 13.9153 11.3597 13.9727 10.7141 14.3281L11.6786 16.0802C11.7202 16.0573 11.7585 16.0503 11.7829 16.0506C11.8043 16.0508 11.8063 16.0558 11.8011 16.0522L12.9483 14.4139ZM3.14729 5.10969L3.14729 5.10969L4.29447 3.47141C3.38966 2.83783 2.14255 3.05772 1.50899 3.96254L3.14729 5.10969ZM9.30773 2.944H11.3077C11.3077 1.83943 10.4123 0.944 9.30773 0.944V2.944Z" fill="black" fill-opacity="0.1" mask="url(#path-1-outside-1_102_1302)"/>
</svg>
