<svg width="18" height="19" viewBox="0 0 18 19" fill="none" xmlns="http://www.w3.org/2000/svg">
<path d="M17 1.94403H11V3.94403H15V7.94403H17V1.94403Z" fill="#EAEAEA"/>
<path d="M17 11.944H15V15.944H11V17.944H17V11.944Z" fill="#EAEAEA"/>
<path d="M3 7.94403V3.94403H7V1.94403H1V7.94403H3Z" fill="#EAEAEA"/>
<path d="M1 11.944V17.944H7V15.944H3V11.944H1Z" fill="#EAEAEA"/>
<path d="M17.5 1.94403V1.44403H17H11H10.5V1.94403V3.94403V4.44403H11H14.5V7.94403V8.44403H15H17H17.5V7.94403V1.94403ZM17.5 11.944V11.444H17H15H14.5V11.944V15.444H11H10.5V15.944V17.944V18.444H11H17H17.5V17.944V11.944ZM3 8.44403H3.5V7.94403V4.44403H7H7.5V3.94403V1.94403V1.44403H7H1H0.5V1.94403V7.94403V8.44403H1H3ZM1 11.444H0.5V11.944V17.944V18.444H1H7H7.5V17.944V15.944V15.444H7H3.5V11.944V11.444H3H1Z" stroke="black" stroke-opacity="0.1"/>
</svg>
