<svg width="16" height="21" viewBox="0 0 16 21" fill="none" xmlns="http://www.w3.org/2000/svg">
<mask id="path-1-outside-1_102_1222" maskUnits="userSpaceOnUse" x="0" y="-0.0559692" width="16" height="22" fill="black">
<rect fill="white" y="-0.0559692" width="16" height="22"/>
<path fill-rule="evenodd" clip-rule="evenodd" d="M1 7.94403H5L10 2.94403V18.944L5 13.944H1V7.94403ZM12 6.94403V14.944L13.65 12.744C14.45 11.6774 14.45 10.2107 13.65 9.14403L12 6.94403Z"/>
</mask>
<path fill-rule="evenodd" clip-rule="evenodd" d="M1 7.94403H5L10 2.94403V18.944L5 13.944H1V7.94403ZM12 6.94403V14.944L13.65 12.744C14.45 11.6774 14.45 10.2107 13.65 9.14403L12 6.94403Z" fill="#EAEAEA"/>
<path d="M5 7.94403V8.94403H5.41421L5.70711 8.65114L5 7.94403ZM1 7.94403V6.94403H0V7.94403H1ZM10 2.94403H11V0.529817L9.29289 2.23692L10 2.94403ZM10 18.944L9.29289 19.6511L11 21.3582V18.944H10ZM5 13.944L5.70711 13.2369L5.41421 12.944H5V13.944ZM1 13.944H0V14.944H1V13.944ZM12 14.944H11V17.944L12.8 15.544L12 14.944ZM12 6.94403L12.8 6.34403L11 3.94403V6.94403H12ZM13.65 12.744L14.45 13.344L14.45 13.344L13.65 12.744ZM13.65 9.14403L14.45 8.54403L14.45 8.54403L13.65 9.14403ZM5 6.94403H1V8.94403H5V6.94403ZM9.29289 2.23692L4.29289 7.23692L5.70711 8.65114L10.7071 3.65114L9.29289 2.23692ZM11 18.944V2.94403H9V18.944H11ZM4.29289 14.6511L9.29289 19.6511L10.7071 18.2369L5.70711 13.2369L4.29289 14.6511ZM1 14.944H5V12.944H1V14.944ZM0 7.94403V13.944H2V7.94403H0ZM13 14.944V6.94403H11V14.944H13ZM12.85 12.144L11.2 14.344L12.8 15.544L14.45 13.344L12.85 12.144ZM12.85 9.74403C13.3833 10.4551 13.3833 11.4329 12.85 12.144L14.45 13.344C15.5167 11.9218 15.5167 9.96625 14.45 8.54403L12.85 9.74403ZM11.2 7.54403L12.85 9.74403L14.45 8.54403L12.8 6.34403L11.2 7.54403Z" fill="black" fill-opacity="0.1" mask="url(#path-1-outside-1_102_1222)"/>
</svg>
