<svg width="16" height="21" viewBox="0 0 16 21" fill="none" xmlns="http://www.w3.org/2000/svg">
<mask id="path-1-outside-1_102_1437" maskUnits="userSpaceOnUse" x="0" y="-0.0560303" width="16" height="22" fill="black">
<rect fill="white" y="-0.0560303" width="16" height="22"/>
<path fill-rule="evenodd" clip-rule="evenodd" d="M1 7.94397H5L10 2.94397V18.944L5 13.944H1V7.94397ZM12 6.94397V14.944L13.65 12.744C14.45 11.6773 14.45 10.2106 13.65 9.14397L12 6.94397Z"/>
</mask>
<path fill-rule="evenodd" clip-rule="evenodd" d="M1 7.94397H5L10 2.94397V18.944L5 13.944H1V7.94397ZM12 6.94397V14.944L13.65 12.744C14.45 11.6773 14.45 10.2106 13.65 9.14397L12 6.94397Z" fill="#EAEAEA"/>
<path d="M5 7.94397V8.94397H5.41421L5.70711 8.65108L5 7.94397ZM1 7.94397V6.94397H0V7.94397H1ZM10 2.94397H11V0.529756L9.29289 2.23686L10 2.94397ZM10 18.944L9.29289 19.6511L11 21.3582V18.944H10ZM5 13.944L5.70711 13.2369L5.41421 12.944H5V13.944ZM1 13.944H0V14.944H1V13.944ZM12 14.944H11V17.944L12.8 15.544L12 14.944ZM12 6.94397L12.8 6.34397L11 3.94397V6.94397H12ZM13.65 12.744L14.45 13.344L14.45 13.344L13.65 12.744ZM13.65 9.14397L14.45 8.54397L14.45 8.54397L13.65 9.14397ZM5 6.94397H1V8.94397H5V6.94397ZM9.29289 2.23686L4.29289 7.23686L5.70711 8.65108L10.7071 3.65108L9.29289 2.23686ZM11 18.944V2.94397H9V18.944H11ZM4.29289 14.6511L9.29289 19.6511L10.7071 18.2369L5.70711 13.2369L4.29289 14.6511ZM1 14.944H5V12.944H1V14.944ZM0 7.94397V13.944H2V7.94397H0ZM13 14.944V6.94397H11V14.944H13ZM12.85 12.144L11.2 14.344L12.8 15.544L14.45 13.344L12.85 12.144ZM12.85 9.74397C13.3833 10.4551 13.3833 11.4329 12.85 12.144L14.45 13.344C15.5167 11.9217 15.5167 9.96619 14.45 8.54397L12.85 9.74397ZM11.2 7.54397L12.85 9.74397L14.45 8.54397L12.8 6.34397L11.2 7.54397Z" fill="black" fill-opacity="0.1" mask="url(#path-1-outside-1_102_1437)"/>
</svg>
