<svg width="14" height="17" viewBox="0 0 14 17" fill="none" xmlns="http://www.w3.org/2000/svg">
<mask id="path-1-outside-1_102_1354" maskUnits="userSpaceOnUse" x="0" y="0.94397" width="14" height="16" fill="black">
<rect fill="white" y="0.94397" width="14" height="16"/>
<path fill-rule="evenodd" clip-rule="evenodd" d="M1 2.94397L9 8.94397L1 14.944V2.94397ZM13 2.94397H11V14.944H13V2.94397Z"/>
</mask>
<path fill-rule="evenodd" clip-rule="evenodd" d="M1 2.94397L9 8.94397L1 14.944V2.94397ZM13 2.94397H11V14.944H13V2.94397Z" fill="#EAEAEA"/>
<path d="M9 8.94397L9.6 9.74397L10.6667 8.94397L9.6 8.14397L9 8.94397ZM1 2.94397L1.6 2.14397L0 0.94397V2.94397H1ZM1 14.944H0V16.944L1.6 15.744L1 14.944ZM11 2.94397V1.94397H10V2.94397H11ZM13 2.94397H14V1.94397H13V2.94397ZM11 14.944H10V15.944H11V14.944ZM13 14.944V15.944H14V14.944H13ZM9.6 8.14397L1.6 2.14397L0.4 3.74397L8.4 9.74397L9.6 8.14397ZM1.6 15.744L9.6 9.74397L8.4 8.14397L0.4 14.144L1.6 15.744ZM0 2.94397V14.944H2V2.94397H0ZM11 3.94397H13V1.94397H11V3.94397ZM12 14.944V2.94397H10V14.944H12ZM13 13.944H11V15.944H13V13.944ZM12 2.94397V14.944H14V2.94397H12Z" fill="black" fill-opacity="0.1" mask="url(#path-1-outside-1_102_1354)"/>
</svg>
