<svg width="17" height="19" viewBox="0 0 17 19" fill="none" xmlns="http://www.w3.org/2000/svg">
<mask id="path-1-outside-1_102_1603" maskUnits="userSpaceOnUse" x="0" y="0.944031" width="17" height="18" fill="black">
<rect fill="white" y="0.944031" width="17" height="18"/>
<path fill-rule="evenodd" clip-rule="evenodd" d="M6.30773 2.94403C6.30773 2.39175 6.75545 1.94403 7.30773 1.94403H9.30773C9.86002 1.94403 10.3077 2.39175 10.3077 2.94403V3.57823C10.3077 4.00201 10.5789 4.37246 10.9589 4.55996C11.039 4.59949 11.1181 4.64076 11.1962 4.68371C11.5678 4.8882 12.0271 4.89802 12.3745 4.65475L12.8946 4.29056C13.3471 3.97378 13.9706 4.08373 14.2874 4.53613L15.4345 6.17443C15.7513 6.62684 15.6414 7.25039 15.1889 7.56716L14.669 7.9312C14.322 8.17419 14.174 8.60855 14.2382 9.02731C14.284 9.32616 14.3077 9.6323 14.3077 9.94403C14.3077 10.2556 14.284 10.5617 14.2382 10.8606C14.174 11.2793 14.322 11.7136 14.669 11.9566L15.189 12.3207C15.6414 12.6374 15.7514 13.261 15.4346 13.7134L14.2875 15.3517C13.9707 15.8041 13.3471 15.914 12.8947 15.5972L12.3747 15.2331C12.0273 14.9898 11.5679 14.9996 11.1964 15.2042C11.1183 15.2472 11.0391 15.2885 10.9589 15.328C10.5789 15.5156 10.3077 15.8861 10.3077 16.3099V16.944C10.3077 17.4963 9.86002 17.944 9.30773 17.944H7.30773C6.75545 17.944 6.30773 17.4963 6.30773 16.944V16.3099C6.30773 15.8861 6.0366 15.5156 5.65657 15.328C5.57639 15.2885 5.49722 15.2472 5.41911 15.2042C5.04754 14.9996 4.58817 14.9898 4.24074 15.2331L3.72083 15.5972C3.26843 15.914 2.64485 15.8041 2.32806 15.3516L1.18093 13.7134C0.864156 13.261 0.974104 12.6374 1.42651 12.3206L1.94647 11.9566C2.29346 11.7136 2.44146 11.2793 2.37729 10.8606C2.33149 10.5618 2.30773 10.2556 2.30773 9.94403C2.30773 9.6323 2.33151 9.32615 2.37733 9.02731C2.44154 8.60855 2.29354 8.17419 1.9465 7.9312L1.42659 7.56716C0.974176 7.25039 0.864222 6.62684 1.181 6.17443L2.32814 4.53614C2.64492 4.08373 3.26848 3.97379 3.72088 4.29058L4.24093 4.65473C4.58835 4.89801 5.04772 4.88819 5.4193 4.68371C5.49735 4.64076 5.57646 4.59949 5.65657 4.55996C6.03662 4.37246 6.30773 4.00201 6.30773 3.57823V2.94403ZM8.30853 11.944C9.4131 11.944 10.3085 11.0486 10.3085 9.94403C10.3085 8.83946 9.4131 7.94403 8.30853 7.94403C7.20396 7.94403 6.30853 8.83946 6.30853 9.94403C6.30853 11.0486 7.20396 11.944 8.30853 11.944Z"/>
</mask>
<path fill-rule="evenodd" clip-rule="evenodd" d="M6.30773 2.94403C6.30773 2.39175 6.75545 1.94403 7.30773 1.94403H9.30773C9.86002 1.94403 10.3077 2.39175 10.3077 2.94403V3.57823C10.3077 4.00201 10.5789 4.37246 10.9589 4.55996C11.039 4.59949 11.1181 4.64076 11.1962 4.68371C11.5678 4.8882 12.0271 4.89802 12.3745 4.65475L12.8946 4.29056C13.3471 3.97378 13.9706 4.08373 14.2874 4.53613L15.4345 6.17443C15.7513 6.62684 15.6414 7.25039 15.1889 7.56716L14.669 7.9312C14.322 8.17419 14.174 8.60855 14.2382 9.02731C14.284 9.32616 14.3077 9.6323 14.3077 9.94403C14.3077 10.2556 14.284 10.5617 14.2382 10.8606C14.174 11.2793 14.322 11.7136 14.669 11.9566L15.189 12.3207C15.6414 12.6374 15.7514 13.261 15.4346 13.7134L14.2875 15.3517C13.9707 15.8041 13.3471 15.914 12.8947 15.5972L12.3747 15.2331C12.0273 14.9898 11.5679 14.9996 11.1964 15.2042C11.1183 15.2472 11.0391 15.2885 10.9589 15.328C10.5789 15.5156 10.3077 15.8861 10.3077 16.3099V16.944C10.3077 17.4963 9.86002 17.944 9.30773 17.944H7.30773C6.75545 17.944 6.30773 17.4963 6.30773 16.944V16.3099C6.30773 15.8861 6.0366 15.5156 5.65657 15.328C5.57639 15.2885 5.49722 15.2472 5.41911 15.2042C5.04754 14.9996 4.58817 14.9898 4.24074 15.2331L3.72083 15.5972C3.26843 15.914 2.64485 15.8041 2.32806 15.3516L1.18093 13.7134C0.864156 13.261 0.974104 12.6374 1.42651 12.3206L1.94647 11.9566C2.29346 11.7136 2.44146 11.2793 2.37729 10.8606C2.33149 10.5618 2.30773 10.2556 2.30773 9.94403C2.30773 9.6323 2.33151 9.32615 2.37733 9.02731C2.44154 8.60855 2.29354 8.17419 1.9465 7.9312L1.42659 7.56716C0.974176 7.25039 0.864222 6.62684 1.181 6.17443L2.32814 4.53614C2.64492 4.08373 3.26848 3.97379 3.72088 4.29058L4.24093 4.65473C4.58835 4.89801 5.04772 4.88819 5.4193 4.68371C5.49735 4.64076 5.57646 4.59949 5.65657 4.55996C6.03662 4.37246 6.30773 4.00201 6.30773 3.57823V2.94403ZM8.30853 11.944C9.4131 11.944 10.3085 11.0486 10.3085 9.94403C10.3085 8.83946 9.4131 7.94403 8.30853 7.94403C7.20396 7.94403 6.30853 8.83946 6.30853 9.94403C6.30853 11.0486 7.20396 11.944 8.30853 11.944Z" fill="#EAEAEA"/>
<path d="M1.42659 7.56716L2.00016 6.748L1.42659 7.56716ZM1.181 6.17443L0.361852 5.60085L1.181 6.17443ZM1.9465 7.9312L1.37294 8.75036L1.9465 7.9312ZM2.37729 10.8606L1.38883 11.0121L2.37729 10.8606ZM1.18093 13.7134L2.00009 13.1398L1.18093 13.7134ZM1.42651 12.3206L2.00009 13.1398L1.42651 12.3206ZM2.32806 15.3516L1.50891 15.9252L2.32806 15.3516ZM5.41911 15.2042L4.93686 16.0802L5.41911 15.2042ZM4.24074 15.2331L3.66713 14.414L4.24074 15.2331ZM5.65657 15.328L5.21401 16.2248L5.65657 15.328ZM10.9589 15.328L10.5163 14.4313L10.9589 15.328ZM12.8947 15.5972L13.4683 14.7781L12.8947 15.5972ZM15.4346 13.7134L14.6154 13.1398L15.4346 13.7134ZM14.669 11.9566L14.0955 12.7757L14.669 11.9566ZM14.669 7.9312L15.2426 8.75036L14.669 7.9312ZM14.2382 9.02731L13.2497 9.17881L14.2382 9.02731ZM12.8946 4.29056L12.3211 3.47141L12.8946 4.29056ZM10.9589 4.55996L10.5164 5.45675L10.9589 4.55996ZM5.4193 4.68371L4.93717 3.80761L5.4193 4.68371ZM12.3747 15.2331L11.8011 16.0522L12.3747 15.2331ZM11.1964 15.2042L10.7141 14.3281L11.1964 15.2042ZM2.32814 4.53614L1.50899 3.96257L2.32814 4.53614ZM3.72088 4.29058L3.14729 5.10972L3.72088 4.29058ZM9.30773 0.944031H7.30773V2.94403H9.30773V0.944031ZM11.3077 3.57823V2.94403H9.30773V3.57823H11.3077ZM11.6783 3.80761C11.5872 3.75748 11.4949 3.70932 11.4014 3.66318L10.5164 5.45675C10.5832 5.48967 10.649 5.52404 10.7141 5.55981L11.6783 3.80761ZM12.3211 3.47141L11.801 3.8356L12.9481 5.4739L13.4682 5.10971L12.3211 3.47141ZM16.2537 5.60085L15.1065 3.96255L13.4682 5.10971L14.6154 6.748L16.2537 5.60085ZM15.2426 8.75036L15.7625 8.38633L14.6154 6.748L14.0955 7.11204L15.2426 8.75036ZM15.3077 9.94403C15.3077 9.58143 15.2801 9.22464 15.2266 8.87581L13.2497 9.17881C13.2879 9.42768 13.3077 9.68317 13.3077 9.94403H15.3077ZM15.2266 11.0121C15.2801 10.6633 15.3077 10.3065 15.3077 9.94403H13.3077C13.3077 10.2047 13.2879 10.4602 13.2497 10.7091L15.2266 11.0121ZM15.7626 11.5015L15.2426 11.1374L14.0955 12.7757L14.6154 13.1398L15.7626 11.5015ZM15.1066 15.9252L16.2537 14.287L14.6154 13.1398L13.4683 14.7781L15.1066 15.9252ZM11.8011 16.0522L12.3211 16.4164L13.4683 14.7781L12.9483 14.414L11.8011 16.0522ZM11.4015 16.2248C11.4951 16.1786 11.5875 16.1304 11.6786 16.0802L10.7141 14.3281C10.6491 14.364 10.5831 14.3984 10.5163 14.4313L11.4015 16.2248ZM11.3077 16.944V16.3099H9.30773V16.944H11.3077ZM7.30773 18.944H9.30773V16.944H7.30773V18.944ZM5.30773 16.3099V16.944H7.30773V16.3099H5.30773ZM4.93686 16.0802C5.02801 16.1304 5.12041 16.1786 5.21401 16.2248L6.09912 14.4313C6.03236 14.3984 5.96642 14.364 5.90135 14.3281L4.93686 16.0802ZM4.29445 16.4163L4.81436 16.0522L3.66713 14.414L3.14722 14.7781L4.29445 16.4163ZM0.361783 14.287L1.50891 15.9252L3.14722 14.7781L2.00009 13.1398L0.361783 14.287ZM1.37289 11.1374L0.852934 11.5015L2.00009 13.1398L2.52004 12.7757L1.37289 11.1374ZM1.30773 9.94403C1.30773 10.3065 1.33538 10.6633 1.38883 11.0121L3.36575 10.7091C3.32761 10.4602 3.30773 10.2047 3.30773 9.94403H1.30773ZM1.38888 8.87575C1.3354 9.22458 1.30773 9.58139 1.30773 9.94403H3.30773C3.30773 9.68321 3.32762 9.42773 3.36578 9.17886L1.38888 8.87575ZM0.853028 8.38633L1.37294 8.75036L2.52007 7.11204L2.00016 6.748L0.853028 8.38633ZM1.50899 3.96257L0.361852 5.60085L2.00016 6.748L3.14729 5.10972L1.50899 3.96257ZM4.81452 3.83559L4.29447 3.47144L3.14729 5.10972L3.66734 5.47387L4.81452 3.83559ZM5.21411 3.66318C5.12059 3.70932 5.02826 3.75748 4.93717 3.80761L5.90143 5.55981C5.96644 5.52403 6.03232 5.48967 6.09903 5.45675L5.21411 3.66318ZM5.30773 2.94403V3.57823H7.30773V2.94403H5.30773ZM9.30853 9.94403C9.30853 10.4963 8.86081 10.944 8.30853 10.944V12.944C9.96538 12.944 11.3085 11.6009 11.3085 9.94403H9.30853ZM8.30853 8.94403C8.86081 8.94403 9.30853 9.39175 9.30853 9.94403H11.3085C11.3085 8.28718 9.96538 6.94403 8.30853 6.94403V8.94403ZM7.30853 9.94403C7.30853 9.39175 7.75624 8.94403 8.30853 8.94403V6.94403C6.65167 6.94403 5.30853 8.28718 5.30853 9.94403H7.30853ZM8.30853 10.944C7.75624 10.944 7.30853 10.4963 7.30853 9.94403H5.30853C5.30853 11.6009 6.65167 12.944 8.30853 12.944V10.944ZM6.09903 5.45675C6.75882 5.13123 7.30773 4.44692 7.30773 3.57823H5.30773C5.30773 3.57188 5.31065 3.57647 5.29854 3.59422C5.28472 3.61449 5.25685 3.64209 5.21411 3.66318L6.09903 5.45675ZM2.00016 6.748V6.748L0.361852 5.60085C-0.271711 6.50567 -0.0518025 7.75278 0.853028 8.38633L2.00016 6.748ZM3.36578 9.17886C3.47725 8.45185 3.2314 7.6101 2.52007 7.11204L1.37294 8.75036C1.36775 8.74673 1.37319 8.74699 1.38079 8.76709C1.38946 8.79002 1.3961 8.82866 1.38888 8.87575L3.36578 9.17886ZM2.52004 12.7757C3.23128 12.2777 3.47717 11.4361 3.36575 10.7091L1.38883 11.0121C1.39605 11.0591 1.38941 11.0978 1.38074 11.1207C1.37314 11.1408 1.3677 11.1411 1.37289 11.1374L2.52004 12.7757ZM2.00009 13.1398H2.00009L0.852934 11.5015C-0.0518781 12.1351 -0.271774 13.3821 0.361783 14.287L2.00009 13.1398ZM3.14722 14.7781H3.14722L1.50891 15.9252C2.14249 16.8301 3.38964 17.0499 4.29445 16.4163L3.14722 14.7781ZM5.90135 14.3281C5.25573 13.9727 4.37927 13.9153 3.66713 14.414L4.81436 16.0522C4.80917 16.0559 4.81122 16.0509 4.83256 16.0506C4.85693 16.0504 4.89532 16.0573 4.93686 16.0802L5.90135 14.3281ZM7.30773 16.3099C7.30773 15.4411 6.7588 14.7569 6.09912 14.4313L5.21401 16.2248C5.25678 16.2459 5.28468 16.2735 5.29852 16.2938C5.31065 16.3116 5.30773 16.3162 5.30773 16.3099H7.30773ZM7.30773 16.944H5.30773C5.30773 18.0486 6.20317 18.944 7.30773 18.944V16.944ZM9.30773 16.944V18.944C10.4123 18.944 11.3077 18.0486 11.3077 16.944H9.30773ZM10.5163 14.4313C9.85667 14.7569 9.30773 15.4411 9.30773 16.3099H11.3077C11.3077 16.3162 11.3048 16.3116 11.3169 16.2938C11.3308 16.2735 11.3587 16.2459 11.4015 16.2248L10.5163 14.4313ZM13.4683 14.7781L12.3211 16.4164C13.2259 17.0499 14.473 16.8301 15.1066 15.9252L13.4683 14.7781ZM14.6154 13.1398V13.1398L16.2537 14.287C16.8873 13.3821 16.6674 12.135 15.7626 11.5015L14.6154 13.1398ZM13.2497 10.7091C13.1383 11.4361 13.3842 12.2777 14.0955 12.7757L15.2426 11.1374C15.2478 11.141 15.2423 11.1408 15.2347 11.1207C15.2261 11.0978 15.2194 11.0591 15.2266 11.0121L13.2497 10.7091ZM14.0955 7.11204C13.3841 7.6101 13.1383 8.45184 13.2497 9.17881L15.2266 8.87581C15.2194 8.82871 15.2261 8.79005 15.2347 8.7671C15.2423 8.74699 15.2478 8.74673 15.2426 8.75036L14.0955 7.11204ZM14.6154 6.748L14.6154 6.748L15.7625 8.38633C16.6673 7.75278 16.8872 6.50567 16.2537 5.60085L14.6154 6.748ZM13.4682 5.10971V5.10971L15.1065 3.96255C14.473 3.05774 13.2259 2.83785 12.3211 3.47141L13.4682 5.10971ZM10.7141 5.55981C11.3596 5.91506 12.236 5.97255 12.9481 5.4739L11.801 3.8356C11.8061 3.83196 11.8041 3.83696 11.7827 3.83721C11.7583 3.83749 11.7199 3.8305 11.6783 3.80761L10.7141 5.55981ZM9.30773 3.57823C9.30773 4.44692 9.85665 5.13123 10.5164 5.45675L11.4014 3.66318C11.3586 3.64209 11.3308 3.61449 11.3169 3.59422C11.3048 3.57647 11.3077 3.57188 11.3077 3.57823H9.30773ZM3.66734 5.47387C4.37949 5.97255 5.25588 5.91506 5.90143 5.55981L4.93717 3.80761C4.89559 3.83049 4.85716 3.83748 4.83275 3.8372C4.81139 3.83695 4.80933 3.83196 4.81452 3.83559L3.66734 5.47387ZM7.30773 0.944031C6.20317 0.944031 5.30773 1.83946 5.30773 2.94403H7.30773V0.944031ZM12.9483 14.414C12.2362 13.9153 11.3597 13.9727 10.7141 14.3281L11.6786 16.0802C11.7202 16.0573 11.7585 16.0503 11.7829 16.0506C11.8043 16.0509 11.8063 16.0559 11.8011 16.0522L12.9483 14.414ZM3.14729 5.10972L3.14729 5.10972L4.29447 3.47144C3.38966 2.83786 2.14255 3.05775 1.50899 3.96257L3.14729 5.10972ZM9.30773 2.94403H11.3077C11.3077 1.83946 10.4123 0.944031 9.30773 0.944031V2.94403Z" fill="black" fill-opacity="0.1" mask="url(#path-1-outside-1_102_1603)"/>
</svg>
