<svg width="14" height="17" viewBox="0 0 14 17" fill="none" xmlns="http://www.w3.org/2000/svg">
<mask id="path-1-outside-1_102_1268" maskUnits="userSpaceOnUse" x="0" y="0.944" width="14" height="16" fill="black">
<rect fill="white" y="0.944" width="14" height="16"/>
<path fill-rule="evenodd" clip-rule="evenodd" d="M1 2.944L9 8.944L1 14.944V2.944ZM13 2.944H11V14.944H13V2.944Z"/>
</mask>
<path fill-rule="evenodd" clip-rule="evenodd" d="M1 2.944L9 8.944L1 14.944V2.944ZM13 2.944H11V14.944H13V2.944Z" fill="#EAEAEA"/>
<path d="M9 8.944L9.6 9.744L10.6667 8.944L9.6 8.144L9 8.944ZM1 2.944L1.6 2.144L0 0.944V2.944H1ZM1 14.944H0V16.944L1.6 15.744L1 14.944ZM11 2.944V1.944H10V2.944H11ZM13 2.944H14V1.944H13V2.944ZM11 14.944H10V15.944H11V14.944ZM13 14.944V15.944H14V14.944H13ZM9.6 8.144L1.6 2.144L0.4 3.744L8.4 9.744L9.6 8.144ZM1.6 15.744L9.6 9.744L8.4 8.144L0.4 14.144L1.6 15.744ZM0 2.944V14.944H2V2.944H0ZM11 3.944H13V1.944H11V3.944ZM12 14.944V2.944H10V14.944H12ZM13 13.944H11V15.944H13V13.944ZM12 2.944V14.944H14V2.944H12Z" fill="black" fill-opacity="0.1" mask="url(#path-1-outside-1_102_1268)"/>
</svg>
