<svg width="23" height="20" viewBox="0 0 23 20" fill="none" xmlns="http://www.w3.org/2000/svg">
<path d="M5.53351 2.62958C5.53351 3.94379 4.34376 5.00917 2.87613 5.00917C1.4085 5.00917 0.21875 3.94379 0.21875 2.62958C0.21875 1.31538 1.4085 0.25 2.87613 0.25C4.34376 0.25 5.53351 1.31538 5.53351 2.62958Z" fill="white"/>
<path d="M0.582152 6.75827H5.12468V19.9375H0.582152V6.75827Z" fill="white"/>
<path d="M12.4381 6.75827H7.89562V19.9375H12.4381C12.4381 19.9375 12.4381 15.7885 12.4381 13.1943C12.4381 11.6373 12.9934 10.0734 15.2091 10.0734C17.7131 10.0734 17.698 12.1111 17.6863 13.6897C17.671 15.7531 17.7075 17.8589 17.7075 19.9375H22.25V12.9818C22.2115 8.54037 21.0028 6.49387 17.0261 6.49387C14.6645 6.49387 13.2006 7.5204 12.4381 8.44913V6.75827Z" fill="white"/>
</svg>
