<svg width="22" height="22" viewBox="0 0 22 22" fill="none" xmlns="http://www.w3.org/2000/svg">
<path d="M13.7 3.4375C14.8654 3.75095 15.9281 4.36513 16.7815 5.21853C17.6349 6.07193 18.2491 7.13459 18.5625 8.30007" stroke="black" stroke-width="2" stroke-linecap="round" stroke-linejoin="round"/>
<path d="M12.988 6.09445C13.6873 6.28252 14.3249 6.65103 14.837 7.16307C15.349 7.67511 15.7175 8.31271 15.9056 9.012" stroke="black" stroke-width="2" stroke-linecap="round" stroke-linejoin="round"/>
<path d="M7.94718 10.7263C8.66032 12.1843 9.84213 13.3607 11.3033 14.0672C11.4102 14.1179 11.5285 14.1398 11.6465 14.1309C11.7644 14.122 11.878 14.0825 11.9761 14.0163L14.1276 12.5816C14.2228 12.5182 14.3322 12.4795 14.4461 12.469C14.56 12.4585 14.6747 12.4767 14.7798 12.5217L18.8049 14.2467C18.9416 14.3048 19.0558 14.4058 19.1302 14.5344C19.2045 14.663 19.2351 14.8123 19.2173 14.9597C19.09 15.9552 18.6043 16.8702 17.851 17.5334C17.0978 18.1966 16.1286 18.5624 15.125 18.5625C12.0253 18.5625 9.05252 17.3311 6.86069 15.1393C4.66886 12.9475 3.4375 9.97471 3.4375 6.87499C3.43755 5.87139 3.80342 4.90222 4.46659 4.14895C5.12975 3.39568 6.04475 2.90996 7.04026 2.78273C7.18774 2.76489 7.33703 2.79545 7.46562 2.86983C7.59422 2.9442 7.69517 3.05835 7.75325 3.19508L9.47978 7.22365C9.52444 7.32785 9.54264 7.44148 9.53275 7.55442C9.52287 7.66735 9.4852 7.77609 9.42312 7.87095L7.99343 10.0555C7.92836 10.1537 7.88989 10.2672 7.88179 10.3848C7.87368 10.5024 7.89621 10.62 7.94718 10.7263V10.7263Z" stroke="black" stroke-width="2" stroke-linecap="round" stroke-linejoin="round"/>
</svg>
