<svg width="69" height="49" viewBox="0 0 69 49" fill="none" xmlns="http://www.w3.org/2000/svg">
<g clip-path="url(#clip0_102_1590)">
<path d="M1.18434 11.319C1.18434 11.319 1.84696 6.61722 3.88913 4.54449C6.47444 1.82813 9.37476 1.81722 10.7 1.65358C20.2157 0.966309 34.4891 0.966309 34.4891 0.966309H34.5217C34.5217 0.966309 48.7952 0.966309 58.3109 1.65358C59.6361 1.81722 62.5364 1.82813 65.1217 4.54449C67.1639 6.61722 67.8265 11.319 67.8265 11.319C67.8265 11.319 68.5 16.839 68.5 22.3699V27.5518C68.5 33.0718 67.8157 38.5918 67.8157 38.5918C67.8157 38.5918 67.153 43.2936 65.1109 45.3663C62.5256 48.0827 59.1256 47.9954 57.6157 48.279C52.1843 48.8027 34.5 48.9663 34.5 48.9663C34.5 48.9663 20.2157 48.9445 10.7 48.2572C9.37476 48.0936 6.47444 48.0827 3.88913 45.3663C1.84696 43.2936 1.18434 38.5918 1.18434 38.5918C1.18434 38.5918 0.499999 33.0718 0.499999 27.5518V22.3699C0.499999 16.839 1.18434 11.319 1.18434 11.319Z" fill="black" fill-opacity="0.25"/>
<path d="M41.5176 14.6353V33.8134L23.1489 24.2571L41.5176 14.6353Z" fill="#EAEAEA"/>
</g>
<defs>
<clipPath id="clip0_102_1590">
<rect width="68" height="48" fill="white" transform="matrix(-1 0 0 1 68.5 0.966309)"/>
</clipPath>
</defs>
</svg>
